<?xml version="1.0" encoding="UTF-8"?>
<svg version="1.1" xmlns="http://www.w3.org/2000/svg" width="256" height="222">
<path d="M0 0 C3.78555535 2.4758904 6.68627655 4.9968182 9.18359375 8.80078125 C9.18359375 9.46078125 9.18359375 10.12078125 9.18359375 10.80078125 C9.78300781 10.58421875 10.38242188 10.36765625 11 10.14453125 C23.55033015 6.28838429 38.47279593 6.17122876 51.18359375 9.30078125 C53.79306443 9.97006326 53.79306443 9.97006326 56.18359375 9.80078125 C58.53013676 8.06828688 59.97246281 6.33642583 61.5859375 3.9140625 C63.56673583 1.29398452 65.19348532 0.16877703 68.18359375 -1.19921875 C78.7127305 -2.64321465 86.49944862 -0.86104885 95.171875 5.1875 C101.58264354 10.19805785 105.6649964 16.79363159 107.18359375 24.80078125 C107.63090637 29.73719557 107.77884555 34.07012495 105.62109375 38.61328125 C103.97008642 42.27421055 104.08181897 43.0579875 105.18359375 46.80078125 C106.23779574 48.99219327 107.34802082 51.15705621 108.49609375 53.30078125 C117.97466155 71.68169741 121.46776192 93.89640335 115.53222656 114.0078125 C113.59840028 119.94326885 111.42595718 125.79273006 109.04296875 131.5625 C108.03350417 134.00397032 108.03350417 134.00397032 107.43359375 137.55078125 C105.21711553 146.55205157 98.55600363 153.52985269 91.18359375 158.80078125 C81.67875556 163.99109262 72.28218247 166.88140208 61.55859375 163.73828125 C58.18359375 161.80078125 58.18359375 161.80078125 56.44995117 160.09570312 C51.16075619 155.03357119 46.54991296 154.07822402 39.46246338 154.13316345 C37.34719257 154.18619506 35.23510333 154.27375979 33.12109375 154.36328125 C31.66869549 154.39846045 30.21621465 154.4303878 28.76367188 154.45898438 C25.23523892 154.53544528 21.70995612 154.65585352 18.18359375 154.80078125 C17.89154053 155.43089111 17.5994873 156.06100098 17.29858398 156.71020508 C15.95664177 159.22631 14.68269474 160.0499153 12.24609375 161.48828125 C11.55644531 161.90464844 10.86679688 162.32101563 10.15625 162.75 C4.08171318 165.98574338 -3.157472 165.61387775 -9.734375 164.15234375 C-22.48672338 159.94352919 -32.5116174 150.06568248 -38.6015625 138.234375 C-39.00246094 137.43128906 -39.40335938 136.62820312 -39.81640625 135.80078125 C-40.31011719 134.88425781 -40.80382813 133.96773437 -41.3125 133.0234375 C-51.85395145 113.01833887 -54.55412216 90.86332317 -48.81640625 68.98828125 C-46.46039361 61.42424066 -43.48426081 54.97410375 -39.07421875 48.38671875 C-37.55079187 45.25470448 -37.74566494 44.06024375 -38.81640625 40.80078125 C-39.34184027 39.3987568 -39.88354472 38.00272142 -40.44140625 36.61328125 C-42.80762686 29.53804734 -41.79085557 23.39824872 -38.75390625 16.67578125 C-31.45467326 3.33580372 -15.28927283 -6.5101342 0 0 Z " fill="#070C1A" transform="translate(95.81640625,3.19921875)"/>
<path d="M0 0 C3.78555535 2.4758904 6.68627655 4.9968182 9.18359375 8.80078125 C9.18359375 9.46078125 9.18359375 10.12078125 9.18359375 10.80078125 C9.78300781 10.58421875 10.38242188 10.36765625 11 10.14453125 C23.55033015 6.28838429 38.47279593 6.17122876 51.18359375 9.30078125 C53.79306443 9.97006326 53.79306443 9.97006326 56.18359375 9.80078125 C58.53013676 8.06828688 59.97246281 6.33642583 61.5859375 3.9140625 C63.56673583 1.29398452 65.19348532 0.16877703 68.18359375 -1.19921875 C77.41858229 -2.46573146 85.42825968 -1.61675356 93.18359375 3.80078125 C95.65346311 5.70445312 97.90080638 7.66687132 100.18359375 9.80078125 C99.85359375 10.46078125 99.52359375 11.12078125 99.18359375 11.80078125 C97.20359375 10.81078125 97.20359375 10.81078125 95.18359375 9.80078125 C95.61671875 10.83203125 96.04984375 11.86328125 96.49609375 12.92578125 C96.76679688 13.57289062 97.0375 14.22 97.31640625 14.88671875 C98.22233915 16.99209692 98.22233915 16.99209692 99.87109375 19.55078125 C102.17962449 25.26714309 102.41984908 30.85437272 100.01171875 36.59375 C97.41497486 41.12466654 94.75608836 45.08200067 90.18359375 47.80078125 C89.19359375 47.80078125 88.20359375 47.80078125 87.18359375 47.80078125 C86.37109375 44.55078125 86.37109375 44.55078125 86.18359375 40.80078125 C88.49609375 38.55078125 88.49609375 38.55078125 91.18359375 36.80078125 C93.66769162 33.07463445 93.70865264 30.116109 93.18359375 25.80078125 C91.43960321 21.11954349 89.15530759 17.84294504 85.18359375 14.80078125 C81.88398006 13.82405511 78.59285755 13.24431654 75.18359375 12.80078125 C75.38899873 14.7711716 75.38899873 14.7711716 76.18359375 16.80078125 C77.90263337 17.79056725 77.90263337 17.79056725 79.99609375 18.30078125 C83.6508199 19.54745624 86.04209467 20.41007437 88.18359375 23.80078125 C88.85992159 28.01422595 88.83118554 31.53643537 86.87109375 35.36328125 C85.18359375 36.80078125 85.18359375 36.80078125 82.18359375 36.80078125 C81.31471334 35.44532782 80.44990595 34.08715073 79.6015625 32.71875 C75.51852836 27.19596828 69.91996956 22.36748395 63.68359375 19.48828125 C60.02091051 17.72234469 59.6305686 17.30969527 58.18359375 13.80078125 C57.52359375 14.79078125 56.86359375 15.78078125 56.18359375 16.80078125 C53.20263672 17.2331543 53.20263672 17.2331543 49.42578125 17.3125 C48.43120407 17.3394268 48.43120407 17.3394268 47.41653442 17.36689758 C45.29728572 17.42111049 43.1782635 17.45492896 41.05859375 17.48828125 C39.62236423 17.52144492 38.18616465 17.5559337 36.75 17.59179688 C33.22808246 17.67684089 29.70608616 17.74359998 26.18359375 17.80078125 C25.85359375 18.46078125 25.52359375 19.12078125 25.18359375 19.80078125 C22.21359375 19.80078125 19.24359375 19.80078125 16.18359375 19.80078125 C16.18359375 20.13078125 16.18359375 20.46078125 16.18359375 20.80078125 C15.508125 20.91035156 14.83265625 21.01992188 14.13671875 21.1328125 C13.2446875 21.29136719 12.35265625 21.44992188 11.43359375 21.61328125 C10.551875 21.76410156 9.67015625 21.91492188 8.76171875 22.0703125 C5.97405525 22.86015049 4.41360271 23.99279549 2.18359375 25.80078125 C1.42046875 26.04828125 0.65734375 26.29578125 -0.12890625 26.55078125 C-9.25321634 30.79464641 -13.93197263 40.59656914 -17.265625 49.59765625 C-19.3851192 55.63383315 -21.05898906 61.44825 -21.81640625 67.80078125 C-22.14640625 67.80078125 -22.47640625 67.80078125 -22.81640625 67.80078125 C-23.14640625 65.82078125 -23.47640625 63.84078125 -23.81640625 61.80078125 C-26.80542021 73.00958361 -27.16941078 83.24076321 -21.81640625 93.80078125 C-20.3037292 95.9960077 -18.74048794 98.03877674 -16.98828125 100.046875 C-15.81640625 101.80078125 -15.81640625 101.80078125 -15.81640625 105.80078125 C-17.28515625 107.44140625 -17.28515625 107.44140625 -19.31640625 109.05078125 C-20.0434375 109.65664062 -20.77046875 110.2625 -21.51953125 110.88671875 C-22.2775 111.51835938 -23.03546875 112.15 -23.81640625 112.80078125 C-32.47002458 120.4271715 -36.08448978 127.27309682 -36.81640625 138.80078125 C-46.78282948 129.97276412 -50.87400221 110.72740237 -51.7265625 98.04296875 C-51.75621094 97.30304688 -51.78585938 96.563125 -51.81640625 95.80078125 C-51.85636719 95.10210937 -51.89632812 94.4034375 -51.9375 93.68359375 C-52.44008953 77.54160071 -48.03419587 61.77045026 -39.07421875 48.38671875 C-37.55079187 45.25470448 -37.74566494 44.06024375 -38.81640625 40.80078125 C-39.34184027 39.3987568 -39.88354472 38.00272142 -40.44140625 36.61328125 C-42.80762686 29.53804734 -41.79085557 23.39824872 -38.75390625 16.67578125 C-31.45467326 3.33580372 -15.28927283 -6.5101342 0 0 Z " fill="#140F1A" transform="translate(95.81640625,3.19921875)"/>
<path d="M0 0 C5.47677 -0.14978543 10.95231437 -0.2578837 16.43066406 -0.32958984 C18.28894859 -0.35952065 20.14709483 -0.40028147 22.00488281 -0.45263672 C36.23670848 -0.84328425 45.56467483 0.29823349 56.75 9.875 C68.11362571 22.10639349 72.81327625 38.70218762 72.28125 55.0390625 C71.63404916 64.15380765 68.06201842 72.50392153 61.11328125 78.67578125 C56.32302438 82.01672661 52.77445913 82.6736869 47 82 C44.5 81 44.5 81 43 80 C44 77 44 77 46.8125 75.25 C51.1453486 72.19151863 53.24169036 69.13636865 54.48828125 63.98046875 C54.78903505 60.89626798 54.51170025 58.64415672 52.56640625 56.1953125 C49.52320957 53.45970775 47.05838612 51.78114954 43 51 C43.05563651 52.83468832 43.05563651 52.83468832 44 55 C45.010625 55.804375 46.02125 56.60875 47.0625 57.4375 C50 60 50 60 50.75 62.375 C49.08913967 68.18801115 43.84046294 72.64891027 39 76 C34.47321015 78.51488325 30.03424708 78.19742145 25 78 C19.71437461 69.47479776 19.71437461 69.47479776 20 65 C21.58271555 63.30875539 23.30259688 61.97433579 25.140625 60.56640625 C28.92543763 57.37794015 30.74454389 53.66046474 31.5 48.75 C31.24806929 45.98295104 31.24806929 45.98295104 29.515625 44.37109375 C25.84116293 42.36839781 22.3759693 42.43224206 18.25 42.3125 C17.45722656 42.27833984 16.66445312 42.24417969 15.84765625 42.20898438 C13.89892496 42.12680896 11.94948638 42.06171955 10 42 C8.05373499 36.68862793 7.9525847 32.33553623 8.23046875 26.71166992 C8.98505279 15.38511412 8.98505279 15.38511412 4 5.6875 C2.67816082 4.44598091 1.34823166 3.21280661 0 2 C0 1.34 0 0.68 0 0 Z " fill="#F3B213" transform="translate(112,24)"/>
<path d="M0 0 C1.06927734 0.48919922 1.06927734 0.48919922 2.16015625 0.98828125 C5.13980927 2.04980825 7.29158924 2.23658513 10.4375 2.1875 C11.34371094 2.18105469 12.24992187 2.17460938 13.18359375 2.16796875 C16.06095856 2.08320604 16.06095856 2.08320604 19.015625 1.24609375 C22 1 22 1 24.67578125 2.5546875 C25.54589844 3.32039063 26.41601562 4.08609375 27.3125 4.875 C28.25867188 5.70515625 29.20484375 6.5353125 30.1796875 7.390625 C31.11039062 8.25171875 32.04109375 9.1128125 33 10 C33.84820312 10.77859375 34.69640625 11.5571875 35.5703125 12.359375 C39.9357191 16.53748693 43.77434781 20.33470353 46 26 C46.00990644 29.08585638 45.62938869 31.98303901 45 35 C44.34 35 43.68 35 43 35 C42.773125 35.721875 42.54625 36.44375 42.3125 37.1875 C38.9982255 44.28951678 31.31495416 49.1583588 24.625 52.875 C17.85194643 54.97698214 10.53571794 54.89079832 4 52 C-0.14449362 48.10867681 -3.1190472 44.53847103 -3.375 38.75 C-3.32660147 34.98701411 -2.98683745 33.97909478 -0.875 30.625 C5.02509175 25.23795971 10.19703435 24.51485602 17.875 24.3125 C18.75414062 24.27833984 19.63328125 24.24417969 20.5390625 24.20898438 C22.69227705 24.1270686 24.84611551 24.06184421 27 24 C27 22.35 27 20.7 27 19 C10.49142591 19.06721735 10.49142591 19.06721735 -3.5 26.9375 C-7.02801609 32.0811965 -7.02801609 32.0811965 -8 44 C-16.91 44 -25.82 44 -35 44 C-36.67632763 31.42754275 -36.67632763 31.42754275 -34.87109375 27.6171875 C-33.3535435 25.86002405 -31.82782832 24.42702741 -30 23 C-29.29875 22.360625 -28.5975 21.72125 -27.875 21.0625 C-26 20 -26 20 -22 20 C-22 17.69 -22 15.38 -22 13 C-21.14277344 12.78085938 -20.28554687 12.56171875 -19.40234375 12.3359375 C-10.80456514 9.9514352 -5.0068957 7.51034356 0 0 Z " fill="#F9EB03" transform="translate(152,108)"/>
<path d="M0 0 C8.58014424 8.91602178 9.14338312 16.19848049 8.9609375 27.875 C8.91491175 32.70770411 9.17801063 37.2350304 10 42 C7.69 42.99 5.38 43.98 3 45 C3 48.3 3 51.6 3 55 C1.35 54.67 -0.3 54.34 -2 54 C-1.97679687 55.16917969 -1.95359375 56.33835938 -1.9296875 57.54296875 C-1.91092179 59.09113942 -1.89272245 60.63931703 -1.875 62.1875 C-1.85824219 62.95642578 -1.84148437 63.72535156 -1.82421875 64.51757812 C-1.78733149 68.8149434 -2.0041496 72.07901831 -4 76 C-5.2739902 75.23439544 -6.54406512 74.46227374 -7.8125 73.6875 C-8.52019531 73.25824219 -9.22789063 72.82898438 -9.95703125 72.38671875 C-11.94384306 71.038118 -13.50313871 69.87804957 -15 68 C-15.36302306 63.42590939 -15.62404613 59.93606919 -13 56 C-11.68 56 -10.36 56 -9 56 C-9 54.35 -9 52.7 -9 51 C-13.86754496 52.12327961 -16.87762456 53.03099347 -20 57 C-20.93344811 61.62217756 -21.09621823 66.72957173 -19.01171875 71.046875 C-16.80565365 73.80616385 -14.31112448 75.7736576 -11 77 C-11.875 80.875 -11.875 80.875 -13 82 C-17.39609242 82.42332742 -21.57717889 82.51738949 -25.75 81 C-29.02989306 78.0845395 -31.69294715 74.73409585 -34 71 C-34 70.34 -34 69.68 -34 69 C-34.66 69 -35.32 69 -36 69 C-41.57650765 51.83896156 -38.43375339 36.23202538 -30.62109375 20.1640625 C-25.89877263 11.80027849 -20.19631428 5.18333956 -11 2 C-10.34 1.608125 -9.68 1.21625 -9 0.8125 C-5.47037086 -0.62141184 -3.79970476 -0.82326936 0 0 Z " fill="#0B69B6" transform="translate(112,24)"/>
<path d="M0 0 C1.2890625 1.609375 1.2890625 1.609375 2.625 3.75 C6.51330144 9.17442052 11.07626992 11.30442967 17.578125 12.45703125 C19.71160462 12.70862083 21.85605434 12.86387647 24 13 C24 15.31 24 17.62 24 20 C21.34771188 21.07525194 18.71631546 22.09456151 16 23 C15.29848848 24.3153341 14.63474075 25.65117592 14 27 C12.375 28.75 12.375 28.75 11 30 C8.89908981 29.05821267 7.2554958 28.26812204 5.65625 26.58984375 C-2.11783488 19.12745567 -12.92213467 19.13909224 -23 19 C-23 20.65 -23 22.3 -23 24 C-22.14277344 23.97679687 -21.28554687 23.95359375 -20.40234375 23.9296875 C-10.62670254 23.77539328 -2.35055139 24.35346853 5.375 31.0625 C7.73337325 35.32571318 7.33333747 39.23142227 7 44 C6.34 44 5.68 44 5 44 C4.773125 44.5775 4.54625 45.155 4.3125 45.75 C2.0995432 49.54364023 -1.40083082 51.60055388 -5 54 C-15.55828515 55.09863237 -22.52770952 53.35421786 -31 47 C-36.84454291 41.88283471 -41.35091437 37.0243309 -42.625 29.125 C-42.03515044 19.5399447 -32.56631355 12.02519104 -26 6 C-25.21882813 5.24589844 -24.43765625 4.49179688 -23.6328125 3.71484375 C-20.18643885 1.4700989 -18.0065622 1.65740309 -13.9375 1.875 C-8.60215568 2.13692726 -4.91449124 0 0 0 Z " fill="#2C2F8B" transform="translate(106,108)"/>
<path d="M0 0 C0.66 0 1.32 0 2 0 C2.5775 0.7425 3.155 1.485 3.75 2.25 C6.2009879 5.24565188 8.71823565 6.98619006 12 9 C11.07524411 14.68064331 11.07524411 14.68064331 10.48828125 17.171875 C8.33428514 29.64782049 9.22510238 41.80424367 16.66796875 52.3671875 C17.69640059 53.70097321 18.75736193 55.01097491 19.86328125 56.28125 C21 58 21 58 21 62 C19.53125 63.640625 19.53125 63.640625 17.5 65.25 C16.77296875 65.85585937 16.0459375 66.46171875 15.296875 67.0859375 C14.53890625 67.71757813 13.7809375 68.34921875 13 69 C4.34638167 76.62639025 0.73191647 83.47231557 0 95 C-9.96642323 86.17198287 -14.05759596 66.92662112 -14.91015625 54.2421875 C-14.93980469 53.50226563 -14.96945313 52.76234375 -15 52 C-15.05994141 50.95199219 -15.05994141 50.95199219 -15.12109375 49.8828125 C-15.69325969 31.50618878 -9.50609626 15.308825 0 0 Z " fill="#FA81D4" transform="translate(59,47)"/>
<path d="M0 0 C0.66 0 1.32 0 2 0 C14.78070013 16.79937389 18.65951006 40.07184345 16.375 60.5625 C14.8207629 70.83397996 10.88586936 80.41610105 7 90 C4.8002087 87.8002087 4.01717123 85.68696082 2.83203125 82.85546875 C-1.57407355 73.02964819 -10.56651414 66.24702656 -19 60 C-18.37083868 56.58233357 -17.04632754 54.3326535 -15.0625 51.5 C-9.66148958 43.75014721 -8.82013724 37.24729826 -8.8125 27.9375 C-8.80025391 27.14794922 -8.78800781 26.35839844 -8.77539062 25.54492188 C-8.76446917 21.20182389 -9.06951814 17.97796262 -11 14 C-11.6875 11.0625 -11.6875 11.0625 -11 8 C-8.83691273 6.16768664 -6.60390382 4.73754321 -4.1640625 3.296875 C-1.89297246 2.05500632 -1.89297246 2.05500632 0 0 Z " fill="#F882D3" transform="translate(197,47)"/>
<path d="M0 0 C0.88945312 -0.01998047 1.77890625 -0.03996094 2.6953125 -0.06054688 C6.95048365 -0.05737137 9.37411062 0.05990387 13.08203125 2.296875 C15 4.4375 15 4.4375 15.6875 7.125 C14.26724485 13.96804754 9.73861747 19.55549406 4 23.4375 C4.54339792 28.00204251 5.79463821 31.4103176 8 35.4375 C16.89296453 35.97107787 21.78703878 33.72979079 28.484375 27.9375 C30.61288935 25.83092909 31.88014731 24.00680028 32.5 21.0625 C31.75144529 17.13258779 29.02087261 15.891959 26 13.4375 C26 12.1175 26 10.7975 26 9.4375 C30.51529741 9.71115439 33.35872376 11.66099557 36.59375 14.640625 C38.47822588 17.0485664 38.90508243 19.24702365 38.625 22.28125 C37.04741737 27.72391008 33.74078673 32.13190995 29.25 35.5 C27 36.4375 27 36.4375 25 36.4375 C25.495 38.9125 25.495 38.9125 26 41.4375 C25.01 41.4375 24.02 41.4375 23 41.4375 C22.7215625 42.489375 22.7215625 42.489375 22.4375 43.5625 C19.79975312 48.83799376 15.35332606 52.10874736 9.9375 54.3125 C6.56549947 55.43650018 3.56731608 55.70504871 0 55.4375 C2.50133321 53.99442315 4.21325045 53.41190995 7.125 53.0625 C10.1317049 52.75774052 10.1317049 52.75774052 11.375 50.375 C11.58125 49.735625 11.7875 49.09625 12 48.4375 C7.87026372 49.00489868 7.87026372 49.00489868 4 50.4375 C-3.01065324 51.27638158 -8.13340087 50.48953999 -14.22265625 46.921875 C-16.20566141 45.26573882 -17.02284926 43.80696397 -18 41.4375 C-17.34 40.7775 -16.68 40.1175 -16 39.4375 C-17.63412443 37.72909719 -18.86906094 36.50296953 -21 35.4375 C-20.84660156 34.63054687 -20.69320312 33.82359375 -20.53515625 32.9921875 C-19.9111048 28.84702821 -19.65372796 24.7452704 -19.4375 20.5625 C-19.39431641 19.77875 -19.35113281 18.995 -19.30664062 18.1875 C-19.20146649 16.27099351 -19.10032075 14.35426667 -19 12.4375 C-17.68 12.1075 -16.36 11.7775 -15 11.4375 C-15.103125 10.179375 -15.20625 8.92125 -15.3125 7.625 C-15.48828125 5.48046875 -15.48828125 5.48046875 -15 3.4375 C-10.67557832 -0.52135201 -5.52672888 -0.04405364 0 0 Z " fill="#0B0D18" transform="translate(129,65.5625)"/>
<path d="M0 0 C4.31784088 0.4797601 6.33046819 2.71442239 9 6 C12.38382086 12.80792529 13.10623826 19.95488311 11.484375 27.3515625 C8.98154109 34.49200043 3.36504633 38.29210793 -3 42 C-3.66 42 -4.32 42 -5 42 C-4.690625 43.258125 -4.38125 44.51625 -4.0625 45.8125 C-3.80146484 46.87404297 -3.80146484 46.87404297 -3.53515625 47.95703125 C-3.08989295 49.65683202 -2.55566015 51.33301954 -2 53 C-1.87656157 55.92807444 -1.81485373 58.82195435 -1.8125 61.75 C-1.80025391 62.53632812 -1.78800781 63.32265625 -1.77539062 64.1328125 C-1.75791851 71.14495529 -3.26498379 76.96426695 -6.4375 83.25 C-7.05431641 84.49523437 -7.05431641 84.49523437 -7.68359375 85.765625 C-9 88 -9 88 -10.66015625 89.609375 C-12.34691801 91.03822204 -12.34691801 91.03822204 -12 94 C-9.81711807 96.09751802 -9.81711807 96.09751802 -7 98.1875 C2.69955489 105.88972055 10.89287145 112.82664919 12.4375 125.625 C12.29709901 132.50464856 8.1353467 137.72989841 3.5859375 142.56640625 C-0.78223812 146.67724222 -4.1484569 149.36701123 -10 151 C-10.66 150.01 -11.32 149.02 -12 148 C-12.68707031 148.32484375 -13.37414062 148.6496875 -14.08203125 148.984375 C-17.43998856 150.15314194 -20.13902279 150.26618462 -23.6875 150.25 C-24.82574219 150.25515625 -25.96398437 150.2603125 -27.13671875 150.265625 C-30 150 -30 150 -32 148 C-31.12859375 148.06960937 -30.2571875 148.13921875 -29.359375 148.2109375 C-20.13810619 148.63008608 -13.72886613 147.1152399 -6 142 C-4.99770906 141.0022962 -3.99698343 140.0030075 -3 139 C-2.34 139 -1.68 139 -1 139 C-0.731875 138.443125 -0.46375 137.88625 -0.1875 137.3125 C1.10899496 134.78774666 2.42476323 132.36285516 4 130 C4.66 130 5.32 130 6 130 C6.63830824 123.29776352 5.92191176 119.6810422 1.90234375 114.26171875 C-3.4027212 107.95446494 -9.60229177 100.87347813 -17 97 C-19.91038542 97.02525184 -19.91038542 97.02525184 -23 98 C-32.65675094 98.84282294 -32.65675094 98.84282294 -37.1875 96 C-37.785625 95.34 -38.38375 94.68 -39 94 C-38.34 92.35 -37.68 90.7 -37 89 C-36.67 89.66 -36.34 90.32 -36 91 C-31.56017502 92.77592999 -26.36312695 92.90719293 -21.9140625 91.19921875 C-15.08132246 87.39016252 -11.08518395 81.62100899 -8.86328125 74.20703125 C-5.34359944 58.83261668 -8.89685583 44.00957204 -16.375 30.4375 C-21.34396362 22.52794019 -26.4609564 17.71492412 -35 14 C-35.57862793 13.65630371 -36.15725586 13.31260742 -36.75341797 12.95849609 C-39.59215167 11.74736063 -41.75761482 11.78933126 -44.83984375 11.83984375 C-45.98646484 11.85080078 -47.13308594 11.86175781 -48.31445312 11.87304688 C-49.51005859 11.89431641 -50.70566406 11.91558594 -51.9375 11.9375 C-71.74333307 12.23442254 -71.74333307 12.23442254 -79 11 C-79.33 10.34 -79.66 9.68 -80 9 C-79.28972656 9.01160156 -78.57945313 9.02320313 -77.84765625 9.03515625 C-76.92855469 9.04417969 -76.00945312 9.05320312 -75.0625 9.0625 C-73.68771484 9.07990234 -73.68771484 9.07990234 -72.28515625 9.09765625 C-70.03406673 9.25949049 -70.03406673 9.25949049 -69 8 C-70.32 7.67 -71.64 7.34 -73 7 C-61.78 7 -50.56 7 -39 7 C-38.34 5.68 -37.68 4.36 -37 3 C-35 6 -35 6 -35 8 C-34.195625 8.185625 -33.39125 8.37125 -32.5625 8.5625 C-24.63399007 11.76172331 -17.94761803 18.07969826 -13 25 C-13 25.66 -13 26.32 -13 27 C-12.01 27 -11.02 27 -10 27 C-7.57362382 22.71242764 -7.14216219 18.84320928 -8 14 C-11.23596186 10.27374089 -15.48658667 8.76996601 -20 7 C-20 5.68 -20 4.36 -20 3 C-14.95586117 2.70328595 -11.99913207 2.82120272 -8 6 C-3.1210003 11.02145225 -0.58657496 14.60590656 -0.640625 21.9296875 C-1.28179029 25.6233571 -3.35931612 27.42218955 -6 30 C-6.66 30.33 -7.32 30.66 -8 31 C-8 33.31 -8 35.62 -8 38 C-1.24324818 35.0270292 2.28092448 30.89410993 5 24 C6.33286286 15.92634712 4.46625087 10.69937631 0 4 C0 2.68 0 1.36 0 0 Z " fill="#181511" transform="translate(191,13)"/>
<path d="M0 0 C2.55848839 0.36864241 3.74326591 0.72356764 5.52734375 2.64453125 C12.64866776 13.59282716 17.41715139 25.29328592 17.3125 38.4375 C17.30404053 39.55608398 17.30404053 39.55608398 17.29541016 40.69726562 C17.08605501 50.19079617 14.23853807 57.7193585 8 65 C4.27173333 68.31144183 0.79055307 70.26885696 -4.25 70.4375 C-7.44554947 70.0646859 -9.36349129 69.75767247 -12 68 C-11 65 -11 65 -8.1875 63.25 C-3.8546514 60.19151863 -1.75830964 57.13636865 -0.51171875 51.98046875 C-0.21096495 48.89626798 -0.48829975 46.64415672 -2.43359375 44.1953125 C-5.47679043 41.45970775 -7.94161388 39.78114954 -12 39 C-11.94436349 40.83468832 -11.94436349 40.83468832 -11 43 C-9.989375 43.804375 -8.97875 44.60875 -7.9375 45.4375 C-5 48 -5 48 -4.25 50.375 C-5.74322466 55.6012863 -10.35083957 60.2746301 -15 63 C-15.99 63 -16.98 63 -18 63 C-20.83590599 49.6813701 -19.84554881 39.87572146 -16 27 C-14.35 27 -12.7 27 -11 27 C-11.04640625 26.35933594 -11.0928125 25.71867187 -11.140625 25.05859375 C-11.40539831 18.71349051 -10.76119573 15.15821129 -7 10 C-6.01 9.34 -5.02 8.68 -4 8 C-2.78581167 6.0533929 -2.78581167 6.0533929 -1.8125 3.875 C-1.46832031 3.15054688 -1.12414062 2.42609375 -0.76953125 1.6796875 C-0.38861328 0.84824219 -0.38861328 0.84824219 0 0 Z " fill="#F7E902" transform="translate(167,36)"/>
<path d="M0 0 C-0.33 0.66 -0.66 1.32 -1 2 C-1.18142943 3.87189095 -1.32107503 5.74794444 -1.4375 7.625 C-1.83111003 12.65715289 -2.37426727 17.2131203 -4 22 C-4.99 22.33 -5.98 22.66 -7 23 C-7.93519961 26.53297632 -8.46998057 30.07396906 -9.05859375 33.6796875 C-10.10172259 37.35877262 -10.83489847 38.07611476 -14 40 C-14.474375 40.825 -14.94875 41.65 -15.4375 42.5 C-17.35136537 45.56218459 -18.7817882 46.3566578 -22 48 C-23.15628906 48.62261719 -23.15628906 48.62261719 -24.3359375 49.2578125 C-28.9602349 51.68799882 -32.77042368 53.31490267 -38 54 C-37.77111728 36.81298821 -34.23328724 21.50864627 -22.0625 8.5625 C-18.56995086 5.24357663 -15.53107622 3.56844946 -11 2 C-10.34 1.608125 -9.68 1.21625 -9 0.8125 C-6.00922769 -0.40250125 -3.18573456 -0.12252825 0 0 Z " fill="#89268F" transform="translate(112,24)"/>
<path d="M0 0 C0.33 0 0.66 0 1 0 C1.07347656 1.75763672 1.07347656 1.75763672 1.1484375 3.55078125 C1.54590694 12.17394033 2.0833274 20.5517538 4 29 C4.66 29 5.32 29 6 29 C7.3440093 30.99284138 8.67541292 32.99419671 10 35 C13.92652777 39.54051565 13.92652777 39.54051565 19.3828125 41.09765625 C20.28773437 41.08605469 21.19265625 41.07445312 22.125 41.0625 C23.03507812 41.05347656 23.94515625 41.04445312 24.8828125 41.03515625 C25.58148438 41.02355469 26.28015625 41.01195312 27 41 C27.66 39.68 28.32 38.36 29 37 C28.278125 36.79375 27.55625 36.5875 26.8125 36.375 C23.13574062 34.57747319 20.74548093 32.68883014 19 29 C18.03734626 24.08575364 17.53184435 19.20836783 20.40234375 14.890625 C23.19260563 12.32627053 25.15048042 11.10844931 28.9375 10.625 C29.618125 10.74875 30.29875 10.8725 31 11 C31 12.65 31 14.3 31 16 C30.360625 16.103125 29.72125 16.20625 29.0625 16.3125 C28.381875 16.539375 27.70125 16.76625 27 17 C25.75435177 20.73694469 25.22930215 24.13124939 26 28 C28.03396102 30.19453689 29.54277515 31.41144253 32 33 C33.79396517 34.24669901 35.58552751 35.49686088 37.375 36.75 C38.24898437 37.34296875 39.12296875 37.9359375 40.0234375 38.546875 C41.00183594 39.26617187 41.00183594 39.26617187 42 40 C42 40.33 42 40.66 42 41 C44.97 41.495 44.97 41.495 48 42 C48 42.33 48 42.66 48 43 C45.03 43 42.06 43 39 43 C43.05497133 47.41276292 46.48793884 50.66896625 52.65234375 51.25 C57.71618974 51.35875374 61.3087782 50.94804973 66 49 C68.3125 49.375 68.3125 49.375 70 50 C64.95930358 55.985827 60.53360297 56.60104483 53.125 57.4375 C47.20340874 57.26230499 41.57711745 54.35803364 37.25390625 50.40234375 C34 46.6506728 34 46.6506728 34 44 C33.13375 44.495 32.2675 44.99 31.375 45.5 C27.50692835 47.2546696 24.55055462 46.8429389 20.375 46.4375 C14.71689915 46.28669774 11.83852659 47.2741705 7.68310547 50.8815918 C-2.62741037 60.3830828 -2.62741037 60.3830828 -7.125 72.875 C-7.09385615 75.72985282 -6.91048511 78.26854468 -6 81 C-6.99 80.67 -7.98 80.34 -9 80 C-9.73046875 77.93359375 -9.73046875 77.93359375 -10.1875 75.4375 C-10.34605469 74.61121094 -10.50460938 73.78492188 -10.66796875 72.93359375 C-10.77753906 72.29550781 -10.88710938 71.65742188 -11 71 C-11.33 73.31 -11.66 75.62 -12 78 C-12.33 78 -12.66 78 -13 78 C-13.49889117 70.14246408 -12.36399811 64.17365304 -7.296875 57.88696289 C-5.37982332 55.8552727 -3.40568753 53.91787156 -1.375 52 C-0.694375 51.33355469 -0.01375 50.66710937 0.6875 49.98046875 C5.62890625 45.18554688 5.62890625 45.18554688 8 44 C6.60789736 41.03595372 4.96642353 38.47217943 3.0625 35.8125 C-2.96013279 26.77118819 -4.2374767 18.00922422 -2.578125 7.26953125 C-1.33211771 1.33211771 -1.33211771 1.33211771 0 0 Z " fill="#060D25" transform="translate(72,64)"/>
<path d="M0 0 C3.75062755 2.6336894 6.81914749 4.92685671 8.12109375 9.43359375 C8.18296875 10.15546875 8.24484375 10.87734375 8.30859375 11.62109375 C7.31859375 11.99234375 6.32859375 12.36359375 5.30859375 12.74609375 C-3.33278865 16.48196412 -9.53898605 22.89246344 -14.69140625 30.62109375 C-17.15940672 29.4693602 -18.7392419 28.5732581 -20.69140625 26.62109375 C-21.13067143 22.15523109 -21.31416203 19.74205416 -19.12890625 15.80859375 C-15.44226769 12.50007196 -11.68325647 10.62109375 -6.69140625 10.62109375 C-6.69140625 9.30109375 -6.69140625 7.98109375 -6.69140625 6.62109375 C-13.92933065 7.46576098 -18.77314991 9.0861753 -23.69140625 14.62109375 C-25.54922631 18.33673388 -25.1392244 22.56652397 -24.69140625 26.62109375 C-23.66885824 29.44575608 -22.52061374 31.16472941 -20.69140625 33.62109375 C-19.70140625 33.95109375 -18.71140625 34.28109375 -17.69140625 34.62109375 C-18.56640625 39.37109375 -18.56640625 39.37109375 -19.69140625 41.62109375 C-23.64711153 41.03506334 -25.84950982 39.39367563 -28.69140625 36.62109375 C-32.32005554 31.67383693 -34.51663193 27.08963432 -34.10546875 20.87890625 C-32.52297607 12.2498424 -27.84449757 6.38296171 -20.8828125 1.30078125 C-14.75783073 -2.3410998 -6.43071848 -3.29469321 0 0 Z " fill="#EDAC10" transform="translate(93.69140625,9.37890625)"/>
<path d="M0 0 C5.47677 -0.14978543 10.95231437 -0.2578837 16.43066406 -0.32958984 C18.28894859 -0.35952065 20.14709483 -0.40028147 22.00488281 -0.45263672 C44.12824272 -1.05989794 44.12824272 -1.05989794 52 6 C52.79785156 8.70556641 52.79785156 8.70556641 53 11 C51.65114018 11.94511946 50.29557262 12.8806672 48.9375 13.8125 C48.18339844 14.33457031 47.42929688 14.85664062 46.65234375 15.39453125 C40.5863731 19.0662749 35.71050237 20.47482515 28.75 20.3125 C28.04359375 20.31572266 27.3371875 20.31894531 26.609375 20.32226562 C22.87841778 20.28340149 21.17544109 20.11696073 18 18 C15.67891331 17.29187186 13.34622853 16.61975848 11 16 C10.9175 15.38125 10.835 14.7625 10.75 14.125 C10.22535703 11.84092015 10.22535703 11.84092015 8.15625 11.1171875 C5.57835189 9.78153739 4.4500811 8.33546494 2.75 6 C2.22921875 5.29875 1.7084375 4.5975 1.171875 3.875 C0 2 0 2 0 0 Z " fill="#F8EB02" transform="translate(112,24)"/>
<path d="M0 0 C5.61459074 2.44532319 9.90356517 6.53116201 14 11 C14.66 11.66 15.32 12.32 16 13 C18.5227537 18.3067926 18.88845563 23.22117558 18 29 C15.63819159 34.65570174 12.36039722 39.81273679 7 43 C6.01 43 5.02 43 4 43 C3.1875 39.75 3.1875 39.75 3 36 C5.3125 33.75 5.3125 33.75 8 32 C10.48409787 28.2738532 10.52505889 25.31532775 10 21 C8.25600946 16.31876224 5.97171384 13.04216379 2 10 C-1.29961369 9.02327386 -4.5907362 8.44353529 -8 8 C-7.79459502 9.97039035 -7.79459502 9.97039035 -7 12 C-5.28096038 12.989786 -5.28096038 12.989786 -3.1875 13.5 C0.46722615 14.74667499 2.85850092 15.60929312 5 19 C5.67632784 23.2134447 5.64759179 26.73565412 3.6875 30.5625 C2 32 2 32 -1 32 C-1.86888041 30.64454657 -2.7336878 29.28636948 -3.58203125 27.91796875 C-8.58156156 21.15551867 -15.33839825 16.26327482 -23 13 C-23 8.64083721 -21.74633644 6.19645776 -18.8125 3.125 C-13.15222444 -1.44597793 -6.92052455 -1.26691525 0 0 Z " fill="#EFE205" transform="translate(179,8)"/>
<path d="M0 0 C1.32 0.33 2.64 0.66 4 1 C3.01 1 2.02 1 1 1 C1 2.65 1 4.3 1 6 C1.66 5.67 2.32 5.34 3 5 C11.15146762 4.31962068 18.27012773 5.44366429 26 8 C25.278125 8.53625 24.55625 9.0725 23.8125 9.625 C15.52356541 16.62454476 15.88851302 18.72466538 14 31 C5.09 31 -3.82 31 -13 31 C-14.67632763 18.42754275 -14.67632763 18.42754275 -12.87109375 14.6171875 C-11.3535435 12.86002405 -9.82782832 11.42702741 -8 10 C-7.29875 9.360625 -6.5975 8.72125 -5.875 8.0625 C-4 7 -4 7 0 7 C0 4.69 0 2.38 0 0 Z " fill="#E7571C" transform="translate(130,121)"/>
<path d="M0 0 C1.06927734 0.48919922 1.06927734 0.48919922 2.16015625 0.98828125 C5.13980927 2.04980825 7.29158924 2.23658513 10.4375 2.1875 C11.88382813 2.17396484 11.88382813 2.17396484 13.359375 2.16015625 C16.12470853 2.08336567 16.12470853 2.08336567 19.1875 1.125 C23.81289239 0.919427 26.64472671 4.06200689 30 7 C29.34 7.33 28.68 7.66 28 8 C27.896875 8.721875 27.79375 9.44375 27.6875 10.1875 C26.76629859 13.95605123 24.92102098 16.52038584 22 19 C19.20492994 19.81360256 17.14348818 20.2350236 14.3125 20.4375 C13.60714111 20.50622314 12.90178223 20.57494629 12.17504883 20.64575195 C5.61125476 21.20617648 -0.70996819 21.09667727 -7 19 C-9.39490986 18.93029948 -11.79167691 18.91551997 -14.1875 18.9375 C-15.45980469 18.94652344 -16.73210937 18.95554687 -18.04296875 18.96484375 C-19.01878906 18.97644531 -19.99460938 18.98804687 -21 19 C-21 17.35 -21 15.7 -21 14 C-19.60587891 13.48953125 -19.60587891 13.48953125 -18.18359375 12.96875 C-10.37667458 9.9602505 -4.8362616 7.16348522 0 0 Z " fill="#F7B311" transform="translate(152,108)"/>
<path d="M0 0 C1.3096875 0.0103125 2.619375 0.020625 3.96875 0.03125 C7.69745044 0.52621023 8.93654041 0.83973407 11.5 3.5 C11.95410156 6.41088867 11.95410156 6.41088867 11.890625 9.91796875 C11.87128906 11.79838867 11.87128906 11.79838867 11.8515625 13.71679688 C11.81804687 15.02712891 11.78453125 16.33746094 11.75 17.6875 C11.72993307 19.0227601 11.71168262 20.35804883 11.6953125 21.69335938 C11.64809803 24.96296146 11.58225184 28.23112192 11.5 31.5 C7.85418313 31.52887512 4.20839537 31.54675585 0.5625 31.5625 C-0.99887695 31.57506836 -0.99887695 31.57506836 -2.59179688 31.58789062 C-3.58115234 31.59111328 -4.57050781 31.59433594 -5.58984375 31.59765625 C-6.96450806 31.60551147 -6.96450806 31.60551147 -8.36694336 31.61352539 C-10.5 31.5 -10.5 31.5 -11.5 30.5 C-11.80972036 26.42450724 -11.77848939 22.33580735 -11.8125 18.25 C-11.84150391 17.10402344 -11.87050781 15.95804688 -11.90039062 14.77734375 C-11.96321072 6.47542611 -11.96321072 6.47542611 -9.94921875 2.234375 C-6.53446156 -0.18373057 -4.15140087 -0.09806459 0 0 Z M-0.5 7.5 C-1.91774838 8.68852855 -1.91774838 8.68852855 -1.59765625 12.09765625 C-1.5909822 13.58596867 -1.57902183 15.07426432 -1.5625 16.5625 C-1.55798828 17.32111328 -1.55347656 18.07972656 -1.54882812 18.86132812 C-1.5370068 20.74091871 -1.51907078 22.62046899 -1.5 24.5 C-0.18 24.17 1.14 23.84 2.5 23.5 C2.5 18.22 2.5 12.94 2.5 7.5 C1.51 7.5 0.52 7.5 -0.5 7.5 Z " fill="#060C1A" transform="translate(71.5,179.5)"/>
<path d="M0 0 C1.3096875 -0.02191406 2.619375 -0.04382813 3.96875 -0.06640625 C7.5 0.5625 7.5 0.5625 9.69628906 2.71582031 C11.81405021 6.05814502 11.96788373 7.81740072 11.890625 11.73828125 C11.87128906 13.47368164 11.87128906 13.47368164 11.8515625 15.24414062 C11.81804687 16.44232422 11.78453125 17.64050781 11.75 18.875 C11.73195312 20.09251953 11.71390625 21.31003906 11.6953125 22.56445312 C11.6482586 25.56413955 11.57651797 28.56342052 11.5 31.5625 C3.91 31.5625 -3.68 31.5625 -11.5 31.5625 C-11.6077394 27.14518479 -11.68720629 22.73048606 -11.75 18.3125 C-11.78351563 17.05824219 -11.81703125 15.80398437 -11.8515625 14.51171875 C-11.86445313 13.30644531 -11.87734375 12.10117188 -11.890625 10.859375 C-11.91157227 9.74916992 -11.93251953 8.63896484 -11.95410156 7.49511719 C-10.88103008 0.56515232 -6.22371959 -0.00612571 0 0 Z M-1.5 7.5625 C-2.91774838 8.75102855 -2.91774838 8.75102855 -2.59765625 12.16015625 C-2.5909822 13.64846867 -2.57902183 15.13676432 -2.5625 16.625 C-2.55798828 17.38361328 -2.55347656 18.14222656 -2.54882812 18.92382812 C-2.5370068 20.80341871 -2.51907078 22.68296899 -2.5 24.5625 C-1.18 24.2325 0.14 23.9025 1.5 23.5625 C1.5 18.2825 1.5 13.0025 1.5 7.5625 C0.51 7.5625 -0.48 7.5625 -1.5 7.5625 Z " fill="#040A18" transform="translate(187.5,179.4375)"/>
<path d="M0 0 C3.46679688 0.04882812 3.46679688 0.04882812 6.93359375 0.09765625 C6.93359375 3.72765625 6.93359375 7.35765625 6.93359375 11.09765625 C8.25359375 11.09765625 9.57359375 11.09765625 10.93359375 11.09765625 C10.93359375 7.46765625 10.93359375 3.83765625 10.93359375 0.09765625 C16.4277798 -0.26862282 16.4277798 -0.26862282 18.74609375 1.41015625 C21.01692449 4.63712624 21.06180703 7.53847657 21.06640625 11.3515625 C21.06833984 12.88006836 21.06833984 12.88006836 21.0703125 14.43945312 C21.06644531 15.50228516 21.06257813 16.56511719 21.05859375 17.66015625 C21.06439453 19.26020508 21.06439453 19.26020508 21.0703125 20.89257812 C21.06902344 21.91029297 21.06773438 22.92800781 21.06640625 23.9765625 C21.06527832 24.91056885 21.06415039 25.8445752 21.06298828 26.80688477 C20.93359375 29.09765625 20.93359375 29.09765625 19.93359375 31.09765625 C12.67359375 31.09765625 5.41359375 31.09765625 -2.06640625 31.09765625 C-2.39640625 29.44765625 -2.72640625 27.79765625 -3.06640625 26.09765625 C6.34361653 22.65346491 6.34361653 22.65346491 10.93359375 23.09765625 C10.93359375 21.44765625 10.93359375 19.79765625 10.93359375 18.09765625 C9.71671875 18.42765625 8.49984375 18.75765625 7.24609375 19.09765625 C4.06598758 19.89268279 1.23089384 20.3974108 -2.06640625 20.09765625 C-3.58850215 18.57556035 -3.19600146 17.21555543 -3.19921875 15.09765625 C-3.20050781 14.29328125 -3.20179687 13.48890625 -3.203125 12.66015625 C-3.19925781 11.81453125 -3.19539063 10.96890625 -3.19140625 10.09765625 C-3.19527344 9.25203125 -3.19914062 8.40640625 -3.203125 7.53515625 C-3.20183594 6.73078125 -3.20054688 5.92640625 -3.19921875 5.09765625 C-3.19809082 4.35515625 -3.19696289 3.61265625 -3.19580078 2.84765625 C-3.00423531 0.25682368 -2.5862308 0.12222263 0 0 Z " fill="#050A18" transform="translate(94.06640625,179.90234375)"/>
<path d="M0 0 C5.3817188 2.56272324 9.70606693 6.03187711 14.04296875 10.0859375 C13.71296875 10.7459375 13.38296875 11.4059375 13.04296875 12.0859375 C11.72296875 11.4259375 10.40296875 10.7659375 9.04296875 10.0859375 C9.04296875 11.0759375 9.04296875 12.0659375 9.04296875 13.0859375 C6.99515622 12.12909933 5.17924906 11.19250741 3.39453125 9.796875 C-1.96517108 5.649775 -7.00609531 5.29196707 -13.66796875 5.52734375 C-18.49394938 6.34695804 -20.9770583 8.31498407 -23.95703125 12.0859375 C-24.91609375 13.2615625 -24.91609375 13.2615625 -25.89453125 14.4609375 C-26.42046875 15.2653125 -26.42046875 15.2653125 -26.95703125 16.0859375 C-27.45203125 15.0959375 -27.45203125 15.0959375 -27.95703125 14.0859375 C-28.61703125 15.0759375 -29.27703125 16.0659375 -29.95703125 17.0859375 C-32.5390625 17.44238281 -32.5390625 17.44238281 -35.76953125 17.4140625 C-37.50589844 17.40632813 -37.50589844 17.40632813 -39.27734375 17.3984375 C-40.49164063 17.3778125 -41.7059375 17.3571875 -42.95703125 17.3359375 C-44.17132813 17.33078125 -45.385625 17.325625 -46.63671875 17.3203125 C-55.64885381 17.24002622 -55.64885381 17.24002622 -57.95703125 16.0859375 C-60.83613713 15.85319541 -63.6984962 15.66620993 -66.58203125 15.5234375 C-67.38382813 15.48025391 -68.185625 15.43707031 -69.01171875 15.39257812 C-70.99328235 15.28642293 -72.97513396 15.18566895 -74.95703125 15.0859375 C-75.28703125 13.7659375 -75.61703125 12.4459375 -75.95703125 11.0859375 C-68.71201725 7.88960779 -61.62058938 7.8984375 -53.83203125 7.8984375 C-52.80464844 7.89199219 -51.77726562 7.88554687 -50.71875 7.87890625 C-45.23193255 7.89281453 -40.30812312 8.24476053 -34.95703125 9.5859375 C-32.34756057 10.25521951 -32.34756057 10.25521951 -29.95703125 10.0859375 C-27.61048824 8.35344313 -26.16816219 6.62158208 -24.5546875 4.19921875 C-19.00554389 -3.14084651 -8.07264974 -2.49537654 0 0 Z " fill="#2F3126" transform="translate(181.95703125,2.9140625)"/>
<path d="M0 0 C2.97 0 5.94 0 9 0 C9 3.63 9 7.26 9 11 C10.32 11 11.64 11 13 11 C13 7.37 13 3.74 13 0 C15.75 -0.3125 15.75 -0.3125 19 0 C21.65501388 2.59997381 22.88513461 4.25269568 23.45410156 7.9543457 C23.42268066 9.5489563 23.42268066 9.5489563 23.390625 11.17578125 C23.37128906 12.91118164 23.37128906 12.91118164 23.3515625 14.68164062 C23.31804687 15.87982422 23.28453125 17.07800781 23.25 18.3125 C23.23195312 19.53001953 23.21390625 20.74753906 23.1953125 22.00195312 C23.1482586 25.00163955 23.07651797 28.00092052 23 31 C15.41 31 7.82 31 0 31 C0 29.02 0 27.04 0 25 C1.41538717 24.66127487 2.83237963 24.32925376 4.25 24 C5.03890625 23.814375 5.8278125 23.62875 6.640625 23.4375 C9 23 9 23 13 23 C13 21.35 13 19.7 13 18 C11.96875 18.33 10.9375 18.66 9.875 19 C6.26890579 20.15395015 4.14593624 20 0 20 C0 13.4 0 6.8 0 0 Z " fill="#080D1D" transform="translate(207,180)"/>
<path d="M0 0 C1.2890625 1.609375 1.2890625 1.609375 2.625 3.75 C6.51330144 9.17442052 11.07626992 11.30442967 17.578125 12.45703125 C19.71160462 12.70862083 21.85605434 12.86387647 24 13 C24 15.31 24 17.62 24 20 C21.34771188 21.07525194 18.71631546 22.09456151 16 23 C15.29848848 24.3153341 14.63474075 25.65117592 14 27 C12.375 28.75 12.375 28.75 11 30 C8.90187808 29.05946259 7.26726491 28.28800786 5.69140625 26.58984375 C0.59175222 21.79640451 -7.13337324 19.45777512 -14 19 C-13.56107422 18.19755859 -13.56107422 18.19755859 -13.11328125 17.37890625 C-11.37532712 13.66517269 -10.40793831 9.71625369 -9.29296875 5.77734375 C-7.29647555 1.48880397 -4.68556022 0 0 0 Z " fill="#0B67B1" transform="translate(106,108)"/>
<path d="M0 0 C1.16144531 0.12890625 2.32289062 0.2578125 3.51953125 0.390625 C4.39996094 0.50921875 5.28039062 0.6278125 6.1875 0.75 C5.76198104 2.66936213 5.32158062 4.58542874 4.875 6.5 C4.63136719 7.56734375 4.38773438 8.6346875 4.13671875 9.734375 C3.18678387 12.75227512 2.43894473 14.54024869 0.1875 16.75 C-2.07421875 17.359375 -2.07421875 17.359375 -4.5 17.5 C-5.30824219 17.55671875 -6.11648437 17.6134375 -6.94921875 17.671875 C-7.87154297 17.71054688 -7.87154297 17.71054688 -8.8125 17.75 C-9.1425 19.4 -9.4725 21.05 -9.8125 22.75 C-9.1525 22.75 -8.4925 22.75 -7.8125 22.75 C-7.8125 23.41 -7.8125 24.07 -7.8125 24.75 C-14.11752201 28.53996727 -19.35178144 31.61183855 -26.8125 31.75 C-27.8125 30.75 -27.8125 30.75 -28.25 27.25 C-28.0743063 18.27364934 -20.25381944 11.87489632 -14.27734375 6.01171875 C-13.46394531 5.26535156 -12.65054688 4.51898438 -11.8125 3.75 C-10.63300781 2.60724609 -10.63300781 2.60724609 -9.4296875 1.44140625 C-5.98757862 -0.78312083 -4.02038643 -0.48731957 0 0 Z " fill="#88268D" transform="translate(91.8125,110.25)"/>
<path d="M0 0 C0.33 0 0.66 0 1 0 C1 4.29 1 8.58 1 13 C8.07587484 11.21194298 8.07587484 11.21194298 14.4375 7.8125 C17 6 17 6 20 6 C20.103125 6.61875 20.20625 7.2375 20.3125 7.875 C20.87525373 10.36526484 20.87525373 10.36526484 24 12 C23.01 12.5775 22.02 13.155 21 13.75 C18.63998606 15.70640111 18.05206154 16.74677552 17.42578125 19.79296875 C17.25285735 24.59309768 17.16868009 28.73735338 20.25 32.625 C22.49660028 34.5652457 24.23659795 35.97651776 27 37 C26.125 40.875 26.125 40.875 25 42 C20.60390758 42.42332742 16.42282111 42.51738949 12.25 41 C8.97010694 38.0845395 6.30705285 34.73409585 4 31 C4 30.34 4 29.68 4 29 C3.34 29 2.68 29 2 29 C-1.21572757 19.10398121 -1.81803596 10.22645225 0 0 Z " fill="#2E2E8A" transform="translate(74,64)"/>
<path d="M0 0 C5.23001388 2.23854421 8.31848295 6.05940909 11 11 C11.77270698 14.93265004 11.6293109 18.63906585 11.375 22.625 C11.2952162 24.61702133 11.21959279 26.6092143 11.1484375 28.6015625 C11.08994629 29.9922998 11.08994629 29.9922998 11.03027344 31.41113281 C10.99154878 34.72271539 11.39010397 37.75025549 12 41 C9.525 41.495 9.525 41.495 7 42 C7.495 39.03 7.495 39.03 8 36 C0.08 36.495 0.08 36.495 -8 37 C-8 29.125 -8 29.125 -6.5 25.0625 C-6.2215625 24.29035156 -5.943125 23.51820312 -5.65625 22.72265625 C-5.4396875 22.15417969 -5.223125 21.58570312 -5 21 C-4.01 21 -3.02 21 -2 21 C-2.020625 20.05125 -2.04125 19.1025 -2.0625 18.125 C-2 15 -2 15 -1 13 C-0.77049681 10.795636 -0.58924067 8.58607827 -0.4375 6.375 C-0.31181641 4.59222656 -0.31181641 4.59222656 -0.18359375 2.7734375 C-0.12300781 1.85820312 -0.06242187 0.94296875 0 0 Z " fill="#0F6CB0" transform="translate(110,25)"/>
<path d="M0 0 C2.97 0 5.94 0 9 0 C10.09282967 3.27848901 10.1293042 5.71440316 10.1328125 9.1640625 C10.13410156 10.36804688 10.13539063 11.57203125 10.13671875 12.8125 C10.13285156 14.070625 10.12898438 15.32875 10.125 16.625 C10.13080078 18.52378906 10.13080078 18.52378906 10.13671875 20.4609375 C10.13542969 21.66234375 10.13414062 22.86375 10.1328125 24.1015625 C10.13168457 25.20838379 10.13055664 26.31520508 10.12939453 27.45556641 C10 30 10 30 9 31 C7.43827255 31.08685603 5.87270656 31.10702219 4.30859375 31.09765625 C3.36435547 31.09443359 2.42011719 31.09121094 1.44726562 31.08789062 C-0.04256836 31.07532227 -0.04256836 31.07532227 -1.5625 31.0625 C-2.55958984 31.05798828 -3.55667969 31.05347656 -4.58398438 31.04882812 C-7.05601487 31.03700023 -9.52801472 31.01906415 -12 31 C-12 27.04 -12 23.08 -12 19 C-7.7900275 17.316011 -6.21047434 16.75940147 -2 17 C-2 19.31 -2 21.62 -2 24 C-1.34 24 -0.68 24 0 24 C0 16.08 0 8.16 0 0 Z " fill="#030A19" transform="translate(158,180)"/>
<path d="M0 0 C1.00023193 0.00523682 2.00046387 0.01047363 3.03100586 0.01586914 C4.1105957 0.0190918 5.19018555 0.02231445 6.30249023 0.02563477 C8.00695312 0.03820312 8.00695312 0.03820312 9.74584961 0.05102539 C11.45611328 0.05779297 11.45611328 0.05779297 13.20092773 0.06469727 C16.02845312 0.07652792 18.85587601 0.09301129 21.68334961 0.11352539 C21.35334961 2.09352539 21.02334961 4.07352539 20.68334961 6.11352539 C18.70334961 6.44352539 16.72334961 6.77352539 14.68334961 7.11352539 C14.35334961 15.03352539 14.02334961 22.95352539 13.68334961 31.11352539 C10.71334961 31.11352539 7.74334961 31.11352539 4.68334961 31.11352539 C4.68334961 23.85352539 4.68334961 16.59352539 4.68334961 9.11352539 C2.37334961 9.11352539 0.06334961 9.11352539 -2.31665039 9.11352539 C-3.68288713 6.38105191 -3.44507639 4.13153637 -3.31665039 1.11352539 C-2.31665039 0.11352539 -2.31665039 0.11352539 0 0 Z " fill="#080E1D" transform="translate(31.316650390625,179.886474609375)"/>
<path d="M0 0 C0 1.32 0 2.64 0 4 C-1.216875 4.391875 -2.43375 4.78375 -3.6875 5.1875 C-7.77457154 6.75554166 -10.40521342 8.35108137 -13 12 C-13.60301704 14.96290105 -13.39896122 16.90805056 -13 20 C-11.7893443 22.05004839 -11.7893443 22.05004839 -10 23 C-9.34 23 -8.68 23 -8 23 C-7.08112028 21.60466412 -6.16584762 20.20681086 -5.26953125 18.796875 C-2.67260044 15.12121908 0.62217192 10.8465068 4.953125 9.3046875 C7.08778222 8.98693318 9.09289161 8.90154819 11.25 8.9375 C13.10625 8.9684375 13.10625 8.9684375 15 9 C12.99062191 11.23264233 11.55402426 12.80534283 8.6875 13.8125 C-0.17507649 17.72852217 -4.6587338 27.31518642 -8.16796875 35.8359375 C-8.57982422 36.90714844 -8.57982422 36.90714844 -9 38 C-9.66 37.01 -10.32 36.02 -11 35 C-11.66 35 -12.32 35 -13 35 C-12.34 32.69 -11.68 30.38 -11 28 C-11.5775 27.979375 -12.155 27.95875 -12.75 27.9375 C-15.67398388 26.71917338 -16.80524841 24.93414166 -18.22265625 22.15625 C-19.71288249 18.02255712 -20.00304684 14.28635349 -19 10 C-16.56065814 5.90490374 -13.57793728 2.94676237 -9.5 0.5 C-6.29290044 -0.14141991 -3.26046013 -0.12786118 0 0 Z " fill="#2F160E" transform="translate(87,16)"/>
<path d="M0 0 C6.95077082 0.93320534 11.95391509 3.0402784 17 8 C19.39250847 11.88782626 19.25474188 15.49956007 19 20 C18.67 20.66 18.34 21.32 18 22 C19.32 22.33 20.64 22.66 22 23 C10.46615994 23.41772459 10.46615994 23.41772459 5 21 C1.79880104 17.99434939 -1.79671183 14.49146193 -2.16796875 9.94140625 C-2.17441406 9.15636719 -2.18085938 8.37132812 -2.1875 7.5625 C-2.20167969 6.78003906 -2.21585938 5.99757812 -2.23046875 5.19140625 C-2 3 -2 3 0 0 Z " fill="#EA601A" transform="translate(151,139)"/>
<path d="M0 0 C2 1 2 1 3.1875 2.5 C5.8792664 4.72766874 8.59829452 4.67908439 12 5 C12 5.33 12 5.66 12 6 C11.43152344 6.07476563 10.86304687 6.14953125 10.27734375 6.2265625 C4.09881814 7.27866536 0.23812785 9.35824093 -4 14 C-5.85782006 17.71564013 -5.44781815 21.94543022 -5 26 C-3.97745199 28.82466233 -2.82920749 30.54363566 -1 33 C-0.01 33.33 0.98 33.66 2 34 C1.125 38.75 1.125 38.75 0 41 C-3.95570528 40.41396959 -6.15810357 38.77258188 -9 36 C-12.62864929 31.05274318 -14.82522568 26.46854057 -14.4140625 20.2578125 C-12.97939273 12.43480188 -9.01630429 7.03917831 -3 2 C-2.01 1.34 -1.02 0.68 0 0 Z " fill="#DE531B" transform="translate(74,10)"/>
<path d="M0 0 C3 1 3 1 4.5 3.4375 C8.29924665 7.33172781 12.74775926 7.39327564 18 8 C17.5625 10.875 17.5625 10.875 16 14 C13.6975871 14.90094418 11.53548671 15.30714243 9.09375 15.67578125 C6.94754915 15.89911089 6.94754915 15.89911089 5 17 C-2.01065324 17.83888158 -7.13340087 17.05203999 -13.22265625 13.484375 C-15.20566141 11.82823882 -16.02284926 10.36946397 -17 8 C-16.40832031 7.96261719 -15.81664063 7.92523438 -15.20703125 7.88671875 C-10.43058885 7.48933121 -6.86820166 7.0718072 -3 4 C-1.21655822 1.93045153 -1.21655822 1.93045153 0 0 Z " fill="#292D87" transform="translate(128,99)"/>
<path d="M0 0 C-0.33 1.32 -0.66 2.64 -1 4 C-1.96679688 4.06058594 -2.93359375 4.12117188 -3.9296875 4.18359375 C-5.23164063 4.26738281 -6.53359375 4.35117187 -7.875 4.4375 C-8.55522217 4.48116699 -9.23544434 4.52483398 -9.9362793 4.56982422 C-14.69068795 4.88532518 -19.41489015 5.32780883 -24.14453125 5.9140625 C-26 6 -26 6 -28 5 C-30.87910588 4.76725791 -33.74146495 4.58027243 -36.625 4.4375 C-37.82769531 4.37272461 -37.82769531 4.37272461 -39.0546875 4.30664062 C-41.0362511 4.20048543 -43.01810271 4.09973145 -45 4 C-45.33 2.68 -45.66 1.36 -46 0 C-32.84557115 -5.80342449 -13.38294341 -4.83512794 0 0 Z " fill="#F37FCF" transform="translate(152,14)"/>
<path d="M0 0 C1 1 1 1 1.09765625 3.28515625 C1.08605469 4.20167969 1.07445313 5.11820313 1.0625 6.0625 C1.05347656 6.98160156 1.04445313 7.90070313 1.03515625 8.84765625 C1.02355469 9.55792969 1.01195313 10.26820313 1 11 C0.34 11 -0.32 11 -1 11 C-1.226875 11.5775 -1.45375 12.155 -1.6875 12.75 C-3.9004568 16.54364023 -7.40083082 18.60055388 -11 21 C-14.1875 21.125 -14.1875 21.125 -17 21 C-18.72800263 17.54399474 -18.35691083 13.78580413 -18 10 C-16.44392346 5.79859335 -14.86950532 3.29751878 -11 1 C-7.11651516 -0.29449495 -4.09302664 -0.13203312 0 0 Z " fill="#01A154" transform="translate(112,141)"/>
<path d="M0 0 C5.5727925 0.56724435 5.5727925 0.56724435 7.50390625 2.5234375 C7.85324219 3.13445312 8.20257813 3.74546875 8.5625 4.375 C10.611775 7.61524976 12.48741697 9.29388824 16 11 C15.42176162 15.77046664 13.53971712 18.99802151 11 23 C8.63386544 24.18306728 7.13219264 24.13354608 4.5 24.125 C3.7059375 24.12757812 2.911875 24.13015625 2.09375 24.1328125 C0 24 0 24 -2 23 C-1.84660156 22.19304687 -1.69320312 21.38609375 -1.53515625 20.5546875 C-0.9111048 16.40952821 -0.65372796 12.3077704 -0.4375 8.125 C-0.39431641 7.34125 -0.35113281 6.5575 -0.30664062 5.75 C-0.20146649 3.83349351 -0.10032075 1.91676667 0 0 Z " fill="#E5561E" transform="translate(110,78)"/>
<path d="M0 0 C5.58757127 3.56673299 9.10635867 7.53391976 11.21875 13.87109375 C12.42273438 13.92007812 13.62671875 13.9690625 14.8671875 14.01953125 C16.44273198 14.09455718 18.01825166 14.17010508 19.59375 14.24609375 C20.3878125 14.27703125 21.181875 14.30796875 22 14.33984375 C27.9921875 14.64453125 27.9921875 14.64453125 30.21875 16.87109375 C29.579375 16.99484375 28.94 17.11859375 28.28125 17.24609375 C27.600625 17.45234375 26.92 17.65859375 26.21875 17.87109375 C25.88875 18.53109375 25.55875 19.19109375 25.21875 19.87109375 C22.24875 19.87109375 19.27875 19.87109375 16.21875 19.87109375 C16.21875 20.20109375 16.21875 20.53109375 16.21875 20.87109375 C9.61875 21.53109375 3.01875 22.19109375 -3.78125 22.87109375 C-0.78125 19.87109375 -0.78125 19.87109375 2.21875 17.87109375 C3.53875 17.87109375 4.85875 17.87109375 6.21875 17.87109375 C5.72375 16.92234375 5.22875 15.97359375 4.71875 14.99609375 C3.21875 11.87109375 3.21875 11.87109375 3.21875 9.87109375 C2.64125 9.60296875 2.06375 9.33484375 1.46875 9.05859375 C-0.8138368 7.85389516 -2.7550442 6.4631126 -4.78125 4.87109375 C-1.43751525 5.42838288 1.25187999 6.22283264 4.21875 7.87109375 C-0.20864153 3.11574729 -3.43449886 0.70040795 -10.03125 0.43359375 C-19.76838812 0.74727337 -25.99025835 5.2572584 -32.78125 11.87109375 C-33.57789063 12.64453125 -33.57789063 12.64453125 -34.390625 13.43359375 C-35.53508403 14.56519369 -36.66084336 15.7156744 -37.78125 16.87109375 C-35.34833467 9.80580932 -30.09047962 4.78729785 -23.46875 1.43359375 C-16.21893658 -1.84573362 -7.54279765 -3.06161309 0 0 Z " fill="#2D2338" transform="translate(95.78125,3.12890625)"/>
<path d="M0 0 C0.66 0.99 1.32 1.98 2 3 C3.81842244 3.86024775 3.81842244 3.86024775 5.875 4.4375 C9.47504424 5.72697039 11.88428649 6.65012028 14 10 C14.67632784 14.2134447 14.64759179 17.73565412 12.6875 21.5625 C11 23 11 23 8 23 C7.13358776 21.64839691 6.27308213 20.29275194 5.4375 18.921875 C2.87452967 15.4952951 -0.44514892 12.85001319 -3.66015625 10.05078125 C-5.51785582 8.42258046 -7.28311207 6.77317934 -9 5 C-6.47043472 1.9083091 -3.77545388 1.09068668 0 0 Z " fill="#E2561A" transform="translate(170,17)"/>
<path d="M0 0 C2.25296339 1.4674611 4.33052692 2.87498407 6.27734375 4.73046875 C6.27734375 5.39046875 6.27734375 6.05046875 6.27734375 6.73046875 C2.40234375 5.85546875 2.40234375 5.85546875 1.27734375 4.73046875 C-11.49426256 3.62459152 -11.49426256 3.62459152 -22.72265625 8.73046875 C-30.91766433 16.46273502 -34.07177571 23.57572287 -34.72265625 34.73046875 C-35.38265625 34.40046875 -36.04265625 34.07046875 -36.72265625 33.73046875 C-37.2492466 24.26647003 -37.05008724 17.09188768 -30.95703125 9.54296875 C-23.30110374 1.3444952 -11.16981585 -5.20830725 0 0 Z " fill="#0C111A" transform="translate(93.72265625,4.26953125)"/>
<path d="M0 0 C0.33 0.66 0.66 1.32 1 2 C6.445 1.505 6.445 1.505 12 1 C11.67 1.66 11.34 2.32 11 3 C9.68 2.67 8.36 2.34 7 2 C7.02320312 3.16917969 7.04640625 4.33835937 7.0703125 5.54296875 C7.08907821 7.09113942 7.10727755 8.63931703 7.125 10.1875 C7.15013672 11.34088867 7.15013672 11.34088867 7.17578125 12.51757812 C7.21266851 16.8149434 6.9958504 20.07901831 5 24 C3.7260098 23.23439544 2.45593488 22.46227374 1.1875 21.6875 C0.47980469 21.25824219 -0.22789063 20.82898438 -0.95703125 20.38671875 C-2.94384306 19.038118 -4.50313871 17.87804957 -6 16 C-6.36302306 11.42590939 -6.62404613 7.93606919 -4 4 C-2.68 4 -1.36 4 0 4 C0 2.68 0 1.36 0 0 Z " fill="#333186" transform="translate(103,76)"/>
<path d="M0 0 C0.33 0.99 0.66 1.98 1 3 C2.87387216 3.80212628 2.87387216 3.80212628 5.0625 4.1875 C5.79597656 4.34605469 6.52945313 4.50460938 7.28515625 4.66796875 C7.85105469 4.77753906 8.41695312 4.88710937 9 5 C9.04898438 5.78246094 9.09796875 6.56492187 9.1484375 7.37109375 C9.22320312 8.38300781 9.29796875 9.39492187 9.375 10.4375 C9.44460937 11.44683594 9.51421875 12.45617187 9.5859375 13.49609375 C9.72257812 14.32238281 9.85921875 15.14867188 10 16 C10.66 16.33 11.32 16.66 12 17 C7.35150485 19.3992233 3.08913926 19.19957409 -2 19 C-7.28562539 10.47479776 -7.28562539 10.47479776 -7 6 C-4.9157318 3.64034921 -2.56930405 1.80684225 0 0 Z " fill="#E95B1B" transform="translate(139,83)"/>
<path d="M0 0 C0.38218767 1.65614657 0.71395102 3.32457024 1 5 C-1.31707984 7.31707984 -8.25819944 6.24875784 -11.59179688 6.25390625 C-17.82566189 6.43854138 -22.20839198 7.91573507 -27 12 C-29.02350324 15.03525486 -29.32124018 16.19426202 -29.625 19.6875 C-29.69976562 20.49574219 -29.77453125 21.30398437 -29.8515625 22.13671875 C-29.90054688 22.75160156 -29.94953125 23.36648437 -30 24 C-30.33 24 -30.66 24 -31 24 C-31.12375 23.030625 -31.2475 22.06125 -31.375 21.0625 C-31.684375 19.5465625 -31.684375 19.5465625 -32 18 C-32.66 17.67 -33.32 17.34 -34 17 C-34 13.23175715 -33.85305513 11.04451388 -31.43359375 8.08203125 C-21.69881126 -0.85263213 -12.45725306 -0.38221117 0 0 Z " fill="#3B2D0D" transform="translate(179,127)"/>
<path d="M0 0 C1.54300781 -0.03867188 1.54300781 -0.03867188 3.1171875 -0.078125 C8.80630716 0.54250624 12.49357614 4.01333883 16.125 8.25 C16.9375 11.0625 16.9375 11.0625 17.125 13.25 C11.8494886 14.15957093 8.08655267 14.73077634 3.125 12.25 C2.6609375 11.2290625 2.6609375 11.2290625 2.1875 10.1875 C1.836875 9.548125 1.48625 8.90875 1.125 8.25 C-1.20657492 7.90458149 -3.54008361 7.57205743 -5.875 7.25 C-8.3125 5.1875 -8.3125 5.1875 -9.875 3.25 C-7.94767341 -0.60465319 -3.84605722 0.05754699 0 0 Z " fill="#F5E804" transform="translate(84.875,7.75)"/>
<path d="M0 0 C2.36497439 1.86708505 3.66030715 3.32061431 5 6 C5.06950541 7.54023996 5.08452357 9.08334988 5.0625 10.625 C5.05347656 11.44226562 5.04445312 12.25953125 5.03515625 13.1015625 C5.02355469 13.72804688 5.01195312 14.35453125 5 15 C2.35375716 14.85978195 -0.29184578 14.71310224 -2.9375 14.5625 C-3.69224609 14.52318359 -4.44699219 14.48386719 -5.22460938 14.44335938 C-10.88671875 14.11328125 -10.88671875 14.11328125 -12 13 C-12.04331848 8.72879747 -11.67985749 5.07208297 -9.375 1.4375 C-6.02280766 -0.59145852 -3.84748569 -0.54964081 0 0 Z " fill="#1A1811" transform="translate(151,46)"/>
<path d="M0 0 C7.87155963 -0.60550459 7.87155963 -0.60550459 11.5625 1.375 C13.84762396 5.54783505 13.24778453 9.29209397 13 14 C5.08 14.495 5.08 14.495 -3 15 C-2.19642857 3.75 -2.19642857 3.75 0 0 Z " fill="#031129" transform="translate(105,46)"/>
<path d="M0 0 C0.33 0 0.66 0 1 0 C1.07347656 1.75763672 1.07347656 1.75763672 1.1484375 3.55078125 C1.54590694 12.17394033 2.0833274 20.5517538 4 29 C4.66 29 5.32 29 6 29 C8 31.75 8 31.75 10 35 C10.45375 35.66 10.9075 36.32 11.375 37 C12.32728365 40.04730768 11.17301949 42.13261902 10 45 C7.4356878 43.7178439 7.22842388 42.55203928 6 40 C5.03507979 38.59428059 4.05495976 37.19891325 3.0625 35.8125 C-2.96013279 26.77118819 -4.2374767 18.00922422 -2.578125 7.26953125 C-1.33211771 1.33211771 -1.33211771 1.33211771 0 0 Z " fill="#0F0E2A" transform="translate(72,64)"/>
<path d="M0 0 C4.31784088 0.4797601 6.33046819 2.71442239 9 6 C12.36488206 12.76982223 13.43614531 20.31844789 11.203125 27.59765625 C10.26141926 29.88310364 9.39192858 31.95633229 8 34 C6.515 34.495 6.515 34.495 5 35 C5.01571045 34.36497559 5.0314209 33.72995117 5.04760742 33.07568359 C5.1102859 30.1755477 5.14909417 27.27555476 5.1875 24.375 C5.21263672 23.37597656 5.23777344 22.37695312 5.26367188 21.34765625 C5.33550091 14.11686631 4.03046273 10.04569409 0 4 C0 2.68 0 1.36 0 0 Z " fill="#0D1018" transform="translate(191,13)"/>
<path d="M0 0 C5.04413883 -0.29671405 8.00086793 -0.17879728 12 3 C16.93404898 8.0781088 19.37094478 11.59548782 19.2890625 18.9921875 C18.82853268 22.19100273 17.3332193 23.86677092 15 26 C14.01 26 13.02 26 12 26 C12 25.01 12 24.02 12 23 C11.34 22.67 10.68 22.34 10 22 C10.66 21.34 11.32 20.68 12 20 C12.56066971 16.94287465 12.52475972 14.06109835 12 11 C8.76403814 7.27374089 4.51341333 5.76996601 0 4 C0 2.68 0 1.36 0 0 Z " fill="#311A11" transform="translate(171,16)"/>
<path d="M0 0 C4.51529741 0.27365439 7.35872376 2.22349557 10.59375 5.203125 C12.47710024 7.60962808 12.90549079 9.80703708 12.625 12.83984375 C11.38905573 17.11157615 9.06226819 20.79823586 6 24 C3.05420875 25.47061206 1.30914 26 -2 26 C-4.33564933 26.31669821 -6.6693782 26.64820803 -9 27 C-7 25 -7 25 -4.75 23.6875 C-0.44042057 21.04298535 3.16415656 18.25376517 6 14 C6.66743877 11.58655333 6.66743877 11.58655333 6 9 C4.02043058 7.30911778 2.02054804 5.64169528 0 4 C0 2.68 0 1.36 0 0 Z " fill="#161A0C" transform="translate(155,75)"/>
<path d="M0 0 C1.85625 0.0309375 1.85625 0.0309375 3.75 0.0625 C1.74062191 2.29514233 0.30402426 3.86784283 -2.5625 4.875 C-11.42507649 8.79102217 -15.9087338 18.37768642 -19.41796875 26.8984375 C-19.69253906 27.61257812 -19.96710938 28.32671875 -20.25 29.0625 C-20.91 28.0725 -21.57 27.0825 -22.25 26.0625 C-22.91 26.0625 -23.57 26.0625 -24.25 26.0625 C-23.92 24.7425 -23.59 23.4225 -23.25 22.0625 C-22.59 22.0625 -21.93 22.0625 -21.25 22.0625 C-21.58 20.4125 -21.91 18.7625 -22.25 17.0625 C-21.26 16.7325 -20.27 16.4025 -19.25 16.0625 C-18.858125 15.051875 -18.46625 14.04125 -18.0625 13 C-16.11821 8.0048294 -12.41852852 4.34291591 -8.25 1.0625 C-5.47110422 0.05248876 -2.94049122 -0.04900819 0 0 Z " fill="#0D0A1F" transform="translate(98.25,24.9375)"/>
<path d="M0 0 C0.33 0.66 0.66 1.32 1 2 C-0.29273377 4.90865098 -1.72797625 7.58620726 -3.4765625 10.24609375 C-5.28009262 13.50632127 -6.16918433 16.65252054 -7.125 20.25 C-8.90651558 26.90651558 -8.90651558 26.90651558 -10 28 C-11.61026898 36.71572161 -11.11445047 45.79734092 -11.0625 54.625 C-11.05747303 56.12109225 -11.05291225 57.61718613 -11.04882812 59.11328125 C-11.03792185 62.74222219 -11.02072382 66.37110027 -11 70 C-17.96626913 57.01483183 -15.57272742 37.80852329 -12 24.1875 C-9.47809028 16.09084247 -6.16991992 6.16991992 0 0 Z " fill="#F59CD5" transform="translate(59,48)"/>
<path d="M0 0 C1.32 1.32 2.64 2.64 4 4 C3.566875 4.37125 3.13375 4.7425 2.6875 5.125 C0.82017244 7.02750756 0.82017244 7.02750756 -0.4375 9.9375 C-1.99394341 12.98812908 -3.52811201 14.68260501 -6 17 C-7.02323436 18.31558703 -8.03126968 19.64377755 -9 21 C-10 20 -10 20 -10.0625 17.4375 C-10.041875 16.633125 -10.02125 15.82875 -10 15 C-12.77555687 14.07481438 -14.58133031 13.85348577 -17.45703125 13.7890625 C-18.32263672 13.76070312 -19.18824219 13.73234375 -20.08007812 13.703125 C-21.88977576 13.65138239 -23.69970044 13.60701187 -25.50976562 13.5703125 C-30.7402975 13.38420017 -34.42827542 12.82615701 -39 10 C-37.1875 9.375 -37.1875 9.375 -35 9 C-34.01 9.66 -33.02 10.32 -32 11 C-19.7080871 12.48129657 -11.33776899 9.891846 -1 3 C-0.67 2.01 -0.34 1.02 0 0 Z " fill="#FABB0C" transform="translate(165,32)"/>
<path d="M0 0 C0 1.65 0 3.3 0 5 C-0.639375 5.103125 -1.27875 5.20625 -1.9375 5.3125 C-2.618125 5.539375 -3.29875 5.76625 -4 6 C-5.23125293 9.69375878 -5.46420032 13.15487401 -5 17 C-3.66169042 19.4595774 -3.66169042 19.4595774 -2 21 C-3.32 20.67 -4.64 20.34 -6 20 C-5.34 21.65 -4.68 23.3 -4 25 C-7.90368082 23.46641111 -9.9450049 21.66963411 -12 18 C-12.8715675 13.10686906 -13.44381991 8.18186193 -10.6015625 3.88671875 C-7.3186209 0.88332895 -4.58938612 -0.83443384 0 0 Z " fill="#040C28" transform="translate(103,75)"/>
<path d="M0 0 C0.96808594 -0.00773438 1.93617188 -0.01546875 2.93359375 -0.0234375 C9.18935492 -0.00664351 15.51424715 0.26407265 21.5 2.25 C21.995 3.24 21.995 3.24 22.5 4.25 C17.29699962 4.33818645 12.24575515 4.16652121 7.0625 3.6875 C2.26389829 3.28715316 -2.10447384 3.37916495 -6.8671875 3.9921875 C-12.06040262 4.50072192 -17.28765817 4.32352833 -22.5 4.25 C-22.17 3.59 -21.84 2.93 -21.5 2.25 C-14.5648722 -0.05090689 -7.22653279 -0.05773528 0 0 Z " fill="#FBA7DD" transform="translate(128.5,10.75)"/>
<path d="M0 0 C0.18262291 5.29606429 -0.18325421 8.97723223 -2 14 C-2.37531446 16.32694964 -2.71917202 18.65976685 -3 21 C-3.33 21 -3.66 21 -4 21 C-4.33 19.02 -4.66 17.04 -5 15 C-6.64006048 21.66957927 -7.51358785 28.15182898 -8 35 C-8.33 35 -8.66 35 -9 35 C-9.05437005 32.14557247 -9.09384974 29.29219924 -9.125 26.4375 C-9.15013672 25.23770508 -9.15013672 25.23770508 -9.17578125 24.01367188 C-9.21706164 18.95682374 -8.52810053 14.86706036 -7 10 C-7 8.68 -7 7.36 -7 6 C-9.41880929 3.73122465 -9.41880929 3.73122465 -12 2 C-10.68 2 -9.36 2 -8 2 C-8 2.66 -8 3.32 -8 4 C-6.68 4 -5.36 4 -4 4 C-3.67 3.01 -3.34 2.02 -3 1 C-1 0 -1 0 0 0 Z " fill="#341D3F" transform="translate(77,50)"/>
<path d="M0 0 C5.67095387 4.31450092 10.87102178 9.09939827 12.52734375 16.2890625 C12.77168257 18.18352513 12.89781682 20.09258061 13 22 C12.01 22.33 11.02 22.66 10 23 C9.46375 21.845 8.9275 20.69 8.375 19.5 C6.08414567 14.91016774 3.18933082 10.99945495 0 7 C-0.78375 6.01 -1.5675 5.02 -2.375 4 C-2.91125 3.34 -3.4475 2.68 -4 2 C-3.01 2 -2.02 2 -1 2 C-0.67 1.34 -0.34 0.68 0 0 Z " fill="#1B1918" transform="translate(190,117)"/>
<path d="M0 0 C0.33 0 0.66 0 1 0 C1 1.65 1 3.3 1 5 C1.66 5 2.32 5 3 5 C3.66160174 16.13696259 3.94454137 24.61660184 -3 34 C-4.58473909 31.53676423 -5.06152794 30.40054692 -4.609375 27.45703125 C-4.32578125 26.58433594 -4.0421875 25.71164063 -3.75 24.8125 C-3.47671875 23.93207031 -3.2034375 23.05164063 -2.921875 22.14453125 C-2 20 -2 20 0 19 C0 12.73 0 6.46 0 0 Z " fill="#100C1D" transform="translate(185,67)"/>
<path d="M0 0 C2.56278699 -0.05420701 5.12441483 -0.09377007 7.6875 -0.125 C8.40873047 -0.14175781 9.12996094 -0.15851563 9.87304688 -0.17578125 C14.04876781 -0.21391569 17.2494138 0.1210081 21 2 C20.67 2.99 20.34 3.98 20 5 C13.4 5 6.8 5 0 5 C0 3.35 0 1.7 0 0 Z " fill="#0A102D" transform="translate(83,127)"/>
<path d="M0 0 C1.39456452 0.00667256 2.78911118 0.01863093 4.18359375 0.03515625 C4.89451172 0.03966797 5.60542969 0.04417969 6.33789062 0.04882812 C8.09899388 0.06064761 9.86005411 0.07858362 11.62109375 0.09765625 C11.62109375 2.07765625 11.62109375 4.05765625 11.62109375 6.09765625 C6.67109375 6.09765625 1.72109375 6.09765625 -3.37890625 6.09765625 C-3.70890625 4.44765625 -4.03890625 2.79765625 -4.37890625 1.09765625 C-3.37890625 0.09765625 -3.37890625 0.09765625 0 0 Z " fill="#181A2B" transform="translate(126.37890625,192.90234375)"/>
<path d="M0 0 C0.99 0 1.98 0 3 0 C6.57634255 6.13891871 7.54836455 10.45400631 7.25 17.5 C7.23195312 18.32242188 7.21390625 19.14484375 7.1953125 19.9921875 C7.1487283 21.99530804 7.07700699 23.99781821 7 26 C6.67 26 6.34 26 6 26 C6 22.04 6 18.08 6 14 C5.34 14 4.68 14 4 14 C4 18.62 4 23.24 4 28 C3.01 28.33 2.02 28.66 1 29 C1.00523682 28.40574219 1.01047363 27.81148437 1.01586914 27.19921875 C1.03685591 24.4661569 1.04972845 21.7331121 1.0625 19 C1.07087891 18.06542969 1.07925781 17.13085938 1.08789062 16.16796875 C1.10708892 10.67725599 0.8134193 5.43133519 0 0 Z " fill="#0F150B" transform="translate(182,58)"/>
<path d="M0 0 C0 0.99 0 1.98 0 3 C1.32 2.34 2.64 1.68 4 1 C3.51939938 4.00375385 2.61140179 5.61233657 0.9375 8.25 C-1.8524815 12.95051232 -1.56427544 17.17862279 -0.5 22.5 C-0.335 22.995 -0.17 23.49 0 24 C-0.99 23.67 -1.98 23.34 -3 23 C-3.73046875 20.93359375 -3.73046875 20.93359375 -4.1875 18.4375 C-4.34605469 17.61121094 -4.50460938 16.78492188 -4.66796875 15.93359375 C-4.83232422 14.97646484 -4.83232422 14.97646484 -5 14 C-5.33 16.31 -5.66 18.62 -6 21 C-6.33 21 -6.66 21 -7 21 C-7.44115759 14.05176801 -6.61730419 9.02480765 -3 3 C-1.36328125 1.2421875 -1.36328125 1.2421875 0 0 Z " fill="#170F2D" transform="translate(66,121)"/>
<path d="M0 0 C0.66 0.33 1.32 0.66 2 1 C1.360625 1.721875 0.72125 2.44375 0.0625 3.1875 C-2.02278169 6.03106594 -2.45035459 7.61052 -3 11 C-3.66 11.66 -4.32 12.32 -5 13 C-5.33 12.34 -5.66 11.68 -6 11 C-6.99 12.485 -6.99 12.485 -8 14 C-10.15478516 14.34057617 -10.15478516 14.34057617 -12.7890625 14.29296875 C-13.73007813 14.28330078 -14.67109375 14.27363281 -15.640625 14.26367188 C-16.62546875 14.23853516 -17.6103125 14.21339844 -18.625 14.1875 C-20.11386719 14.16719727 -20.11386719 14.16719727 -21.6328125 14.14648438 C-24.08908072 14.11105743 -26.54427285 14.06166196 -29 14 C-29 13.67 -29 13.34 -29 13 C-24.71702469 11.94380997 -20.57014354 11.88297908 -16.1875 11.9375 C-15.49462891 11.94201172 -14.80175781 11.94652344 -14.08789062 11.95117188 C-12.39188932 11.96286844 -10.69593297 11.98080076 -9 12 C-8.70996094 10.89398438 -8.41992188 9.78796875 -8.12109375 8.6484375 C-6.9599102 4.86953354 -6.05568089 3.40750616 -3 1 C-2.01 0.67 -1.02 0.34 0 0 Z " fill="#341F3B" transform="translate(160,6)"/>
<path d="M0 0 C0.61875 0.33 1.2375 0.66 1.875 1 C1.875 1.66 1.875 2.32 1.875 3 C0.93398437 3.02578125 -0.00703125 3.0515625 -0.9765625 3.078125 C-10.3730487 3.35980368 -10.3730487 3.35980368 -18.125 8 C-19.115 8.66 -20.105 9.32 -21.125 10 C-21.455 9.01 -21.785 8.02 -22.125 7 C-16.58303498 -1.11502021 -9.21474187 -2.9487174 0 0 Z " fill="#101518" transform="translate(179.125,4)"/>
<path d="M0 0 C0.66 0.33 1.32 0.66 2 1 C1.54625 1.350625 1.0925 1.70125 0.625 2.0625 C-1.64689789 4.77130133 -2.05330733 7.60304396 -3 11 C-3.66525767 12.28261679 -4.3538901 13.5533155 -5.0625 14.8125 C-7.47756597 19.38227167 -7.79096095 23.89944712 -8 29 C-8.66 28.67 -9.32 28.34 -10 28 C-10.50524532 18.91961891 -10.5104716 11.30255441 -4.3984375 4.1171875 C-2.99178856 2.68387223 -1.50286511 1.33208498 0 0 Z " fill="#090B18" transform="translate(67,10)"/>
<path d="M0 0 C0 0.66 0 1.32 0 2 C4.29 2 8.58 2 13 2 C13 2.33 13 2.66 13 3 C12.29875 3.02578125 11.5975 3.0515625 10.875 3.078125 C1.1361568 3.66033845 -4.82334377 6.54100939 -12 13 C-11.43251874 9.02763121 -10.44641497 6.2056472 -8 3 C-2.93103448 0 -2.93103448 0 0 0 Z " fill="#0F0D17" transform="translate(77,5)"/>
<path d="M0 0 C0.33 0 0.66 0 1 0 C1.06058594 1.07378906 1.12117188 2.14757813 1.18359375 3.25390625 C1.26807651 4.69011315 1.35272054 6.12631058 1.4375 7.5625 C1.47681641 8.26697266 1.51613281 8.97144531 1.55664062 9.69726562 C1.82518279 14.1798541 2.30616197 18.56293497 3 23 C1.35 23.33 -0.3 23.66 -2 24 C-1.67 22.02 -1.34 20.04 -1 18 C-6.28 18.33 -11.56 18.66 -17 19 C-17 18.67 -17 18.34 -17 18 C-11.6088658 16.74831071 -6.51858026 16.93351108 -1 17 C-0.67 11.39 -0.34 5.78 0 0 Z " fill="#1B679A" transform="translate(119,43)"/>
<path d="M0 0 C1.32 0 2.64 0 4 0 C5.23777572 3.71332715 5.55550683 7.14147956 5 11 C3.1875 14 3.1875 14 1 16 C0.01 16 -0.98 16 -2 16 C-1.67 15.01 -1.34 14.02 -1 13 C-0.77548542 10.77425665 -0.59217122 8.54418481 -0.4375 6.3125 C-0.35371094 5.13300781 -0.26992187 3.95351563 -0.18359375 2.73828125 C-0.12300781 1.83464844 -0.06242188 0.93101563 0 0 Z " fill="#1C1E0E" transform="translate(185,26)"/>
<path d="M0 0 C0.66 0 1.32 0 2 0 C1.67 0.99 1.34 1.98 1 3 C0.91684248 5.06498892 0.89264122 7.1325789 0.90234375 9.19921875 C0.90556641 10.40771484 0.90878906 11.61621094 0.91210938 12.86132812 C0.92048828 14.12396484 0.92886719 15.38660156 0.9375 16.6875 C0.94201172 17.96173828 0.94652344 19.23597656 0.95117188 20.54882812 C0.96297127 23.69926564 0.97943403 26.84960949 1 30 C0.01 30 -0.98 30 -2 30 C-2.05793591 25.56255461 -2.09357467 21.12520611 -2.125 16.6875 C-2.14175781 15.42486328 -2.15851563 14.16222656 -2.17578125 12.86132812 C-2.18222656 11.65283203 -2.18867188 10.44433594 -2.1953125 9.19921875 C-2.20578613 8.08377686 -2.21625977 6.96833496 -2.22705078 5.8190918 C-2 3 -2 3 0 0 Z " fill="#121520" transform="translate(178,181)"/>
<path d="M0 0 C1 1 1 1 1.09765625 3.28515625 C1.08605469 4.20167969 1.07445313 5.11820313 1.0625 6.0625 C1.05347656 6.98160156 1.04445313 7.90070313 1.03515625 8.84765625 C1.02355469 9.55792969 1.01195313 10.26820313 1 11 C0.67 11 0.34 11 0 11 C-0.33 8.03 -0.66 5.06 -1 2 C-4.17216672 1.44487082 -6.29356685 1.59576325 -9.109375 3.20703125 C-14.26799842 7.22661556 -15.99754382 10.60627165 -16.84375 17.05859375 C-16.8953125 17.69925781 -16.946875 18.33992188 -17 19 C-17.33 19 -17.66 19 -18 19 C-18.34605141 13.23247651 -18.32125966 8.9818895 -15 4 C-10.3032266 -0.2564509 -6.0430233 -0.19493624 0 0 Z " fill="#0B765C" transform="translate(112,141)"/>
<path d="M0 0 C1.17992212 4.10686072 1.34389207 7.91165366 0 12 C-1.83543755 14.23794579 -3.52674637 15.38481396 -6 17 C-6.66 17 -7.32 17 -8 17 C-7.505 16.1028125 -7.505 16.1028125 -7 15.1875 C-5.79212012 12.94613529 -5.79212012 12.94613529 -6 10 C-5.06577625 8.23442832 -4.05669481 6.50761458 -3 4.8125 C-2.443125 3.91144531 -1.88625 3.01039062 -1.3125 2.08203125 C-0.6628125 1.05142578 -0.6628125 1.05142578 0 0 Z " fill="#14121A" transform="translate(196,37)"/>
<path d="M0 0 C5.94 0 11.88 0 18 0 C18 0.99 18 1.98 18 3 C11.73 3 5.46 3 -1 3 C-0.67 2.01 -0.34 1.02 0 0 Z " fill="#080B0F" transform="translate(160,129)"/>
<path d="M0 0 C0.33 0 0.66 0 1 0 C1 2.31 1 4.62 1 7 C-5.27 6.67 -11.54 6.34 -18 6 C-17.67 5.34 -17.34 4.68 -17 4 C-12.05 4 -7.1 4 -2 4 C-1.34 2.68 -0.68 1.36 0 0 Z " fill="#020916" transform="translate(154,16)"/>
<path d="M0 0 C4.24822374 0.47202486 6.19989709 2.96655518 9 6 C7.93453047 8.13093906 6.70840281 9.36587557 5 11 C5.66 11.33 6.32 11.66 7 12 C6.01 12 5.02 12 4 12 C3.71125 11.236875 3.4225 10.47375 3.125 9.6875 C2.03730987 6.84970692 2.03730987 6.84970692 0 4 C0 2.68 0 1.36 0 0 Z " fill="#151918" transform="translate(191,13)"/>
<path d="M0 0 C0.33 0.66 0.66 1.32 1 2 C3.80980673 2.69227032 3.80980673 2.69227032 7.0625 3.125 C8.71958984 3.37636719 8.71958984 3.37636719 10.41015625 3.6328125 C11.26480469 3.75398438 12.11945313 3.87515625 13 4 C13 4.33 13 4.66 13 5 C10.36 5.33 7.72 5.66 5 6 C5 6.66 5 7.32 5 8 C7.97 8 10.94 8 14 8 C14 8.33 14 8.66 14 9 C4.00437637 9.63019694 4.00437637 9.63019694 -0.1875 7 C-0.785625 6.34 -1.38375 5.68 -2 5 C-1.34 3.35 -0.68 1.7 0 0 Z " fill="#28210B" transform="translate(154,102)"/>
<path d="M0 0 C0.33 0 0.66 0 1 0 C0.67 7.26 0.34 14.52 0 22 C-3.28763504 18.71236496 -2.96164976 14.49976197 -3 10 C-1.91752577 1.91752577 -1.91752577 1.91752577 0 0 Z " fill="#020719" transform="translate(72,64)"/>
<path d="M0 0 C0 1.32 0 2.64 0 4 C-9.41002278 5.14806378 -9.41002278 5.14806378 -14 5 C-9.48881925 0.17770333 -6.5260927 -0.12313382 0 0 Z " fill="#2B1A0D" transform="translate(87,16)"/>
<path d="M0 0 C0 1.65 0 3.3 0 5 C-1.32 5.33 -2.64 5.66 -4 6 C-4.66 8.97 -5.32 11.94 -6 15 C-6.66 14.67 -7.32 14.34 -8 14 C-8.09978121 10.50765756 -7.77842938 7.40562852 -7 4 C-7.66 3.67 -8.32 3.34 -9 3 C-5.92807025 0.26939578 -4.09590633 -0.34132553 0 0 Z " fill="#0A1843" transform="translate(103,75)"/>
<path d="M0 0 C0.33 0.66 0.66 1.32 1 2 C3.52733235 2.65555119 3.52733235 2.65555119 6 3 C6 3.33 6 3.66 6 4 C4.35 4 2.7 4 1 4 C1 4.66 1 5.32 1 6 C2.32 6 3.64 6 5 6 C5.33 6.99 5.66 7.98 6 9 C4.845 8.525625 3.69 8.05125 2.5 7.5625 C-4.43869583 5.20133866 -11.73987682 5.25833567 -19 5 C-19 4.67 -19 4.34 -19 4 C-12.73 4 -6.46 4 0 4 C0 2.68 0 1.36 0 0 Z " fill="#343007" transform="translate(155,19)"/>
<path d="M0 0 C-5.27808571 4.88222928 -10.20007559 7.79643262 -17.5 8.1875 C-18.7375 8.0946875 -18.7375 8.0946875 -20 8 C-17.49866679 6.55692315 -15.78674955 5.97440995 -12.875 5.625 C-11.92625 5.41875 -10.9775 5.2125 -10 5 C-8.83333333 3.08333333 -8.83333333 3.08333333 -8 1 C-5.04396392 -1.06922526 -3.37415171 -1.20505418 0 0 Z " fill="#16120F" transform="translate(149,113)"/>
<path d="M0 0 C0.99 0.495 0.99 0.495 2 1 C2 6.28 2 11.56 2 17 C3.65 17 5.3 17 7 17 C6.67 17.66 6.34 18.32 6 19 C4.02 19 2.04 19 0 19 C0 12.73 0 6.46 0 0 Z " fill="#191B2C" transform="translate(207,181)"/>
<path d="M0 0 C0.33 0 0.66 0 1 0 C1 1.65 1 3.3 1 5 C1.66 5 2.32 5 3 5 C3 9.29 3 13.58 3 18 C2.34 18.33 1.68 18.66 1 19 C-0.65497356 15.69005287 -0.10084335 12.00877 -0.0625 8.375 C-0.05798828 7.57320313 -0.05347656 6.77140625 -0.04882812 5.9453125 C-0.03703168 3.96350994 -0.01909605 1.98174567 0 0 Z " fill="#010613" transform="translate(185,67)"/>
<path d="M0 0 C3.32635882 1.52572656 4.95563002 2.93344504 7 6 C6.67 6.66 6.34 7.32 6 8 C5.01 7.34 4.02 6.68 3 6 C2.89042969 6.67546875 2.78085938 7.3509375 2.66796875 8.046875 C2.50941406 8.93890625 2.35085937 9.8309375 2.1875 10.75 C2.03667969 11.63171875 1.88585937 12.5134375 1.73046875 13.421875 C0.94585752 16.1910911 -0.14595359 17.8259401 -2 20 C-1.855625 19.113125 -1.71125 18.22625 -1.5625 17.3125 C-0.73256094 11.57406419 -0.40854359 5.78045724 0 0 Z " fill="#3952A9" transform="translate(110,25)"/>
<path d="M0 0 C0 0.66 0 1.32 0 2 C-2.64 2.33 -5.28 2.66 -8 3 C-7.67 3.99 -7.34 4.98 -7 6 C-7.33 6.66 -7.66 7.32 -8 8 C-7.71887936 10.00800456 -7.38932033 12.01014051 -7 14 C-7.99 14 -8.98 14 -10 14 C-10 10.04 -10 6.08 -10 2 C-5.7900275 0.316011 -4.21047434 -0.24059853 0 0 Z " fill="#2F303A" transform="translate(156,197)"/>
<path d="M0 0 C2.66672603 2.43483681 3.9008646 4.25969405 4.11352539 7.99291992 C4.10828857 8.73131104 4.10305176 9.46970215 4.09765625 10.23046875 C4.09443359 11.03291016 4.09121094 11.83535156 4.08789062 12.66210938 C4.07532227 13.91217773 4.07532227 13.91217773 4.0625 15.1875 C4.05798828 16.03248047 4.05347656 16.87746094 4.04882812 17.74804688 C4.03705403 19.83206155 4.0191189 21.91603977 4 24 C3.67 24 3.34 24 3 24 C3 20.04 3 16.08 3 12 C2.34 12 1.68 12 1 12 C0.01751476 7.9472484 -0.08159574 4.16138263 0 0 Z " fill="#311A39" transform="translate(185,60)"/>
<path d="M0 0 C3.51439033 2.74627508 4.6466127 6.64236491 6.125 10.6875 C6.38925781 11.37005859 6.65351563 12.05261719 6.92578125 12.75585938 C8.69793617 17.51908796 9.53425147 21.9392446 10 27 C6.83730605 24.24760148 6.45176493 21.83488198 5.671875 17.75390625 C4.57159297 13.24402932 2.76199844 9.01881118 1.0234375 4.72265625 C0 2 0 2 0 0 Z " fill="#F29ACE" transform="translate(202,54)"/>
<path d="M0 0 C0.66 0 1.32 0 2 0 C1.84660156 0.66386719 1.69320312 1.32773437 1.53515625 2.01171875 C0.89226979 5.60155922 0.64966009 9.17795419 0.4375 12.8125 C0.39431641 13.50537109 0.35113281 14.19824219 0.30664062 14.91210938 C0.20138547 16.60788686 0.10027137 18.30392052 0 20 C-0.66 20 -1.32 20 -2 20 C-3.31191816 12.57106587 -2.65494169 7.04984516 0 0 Z " fill="#191D27" transform="translate(57,20)"/>
<path d="M0 0 C4.99184736 -0.29363808 7.97444744 -0.07836372 12 3 C12.33 3.66 12.66 4.32 13 5 C8.71 4.67 4.42 4.34 0 4 C0 2.68 0 1.36 0 0 Z " fill="#28270B" transform="translate(171,16)"/>
<path d="M0 0 C0.66 0.33 1.32 0.66 2 1 C0.625 3.5 0.625 3.5 -1 6 C-1.66 6 -2.32 6 -3 6 C-3 7.65 -3 9.3 -3 11 C-3.33 10.34 -3.66 9.68 -4 9 C-5.32 9 -6.64 9 -8 9 C-8.33 7.02 -8.66 5.04 -9 3 C-6.69 3.33 -4.38 3.66 -2 4 C-1.34 2.68 -0.68 1.36 0 0 Z " fill="#090D18" transform="translate(189,49)"/>
<path d="M0 0 C2 1 2 1 2.67578125 2.75 C2.99095703 3.86375 2.99095703 3.86375 3.3125 5 C4.68029479 9.43647431 6.6589552 13.12556609 9.109375 17.0546875 C10 19 10 19 9 22 C4.54817514 15.63243084 0 7.95679895 0 0 Z " fill="#F49FD4" transform="translate(48,118)"/>
<path d="M0 0 C0.99 0.33 1.98 0.66 3 1 C4.52160014 4.6037898 5 7.05220686 5 11 C4.01 11.33 3.02 11.66 2 12 C-0.125 5.375 -0.125 5.375 1 2 C0.01 1.67 -0.98 1.34 -2 1 C-1.34 0.67 -0.68 0.34 0 0 Z " fill="#1A1329" transform="translate(198,128)"/>
<path d="M0 0 C0.8125 1.6875 0.8125 1.6875 1 4 C-1.1875 6.5625 -1.1875 6.5625 -4 9 C-4.61875 9.5775 -5.2375 10.155 -5.875 10.75 C-8.82038197 12.48257763 -11.63477949 12.6764211 -15 13 C-13 11 -13 11 -10.75 9.6875 C-6.44042057 7.04298535 -2.83584344 4.25376517 0 0 Z " fill="#332708" transform="translate(161,89)"/>
<path d="M0 0 C1.37403688 2.74807376 0.8121976 4.42732164 0.3125 7.4375 C0.16425781 8.40558594 0.01601562 9.37367187 -0.13671875 10.37109375 C-1.16809824 13.51190097 -2.28736512 14.22997956 -5 16 C-6.03357147 17.64605826 -7.04060332 19.30963442 -8 21 C-8.33 21 -8.66 21 -9 21 C-9.375 18.75 -9.375 18.75 -9 16 C-8.030625 15.4225 -7.06125 14.845 -6.0625 14.25 C-2.86016606 12.39496581 -2.86016606 12.39496581 -2.44921875 9.85546875 C-2.31945966 8.28054963 -2.23509664 6.70102585 -2.203125 5.12109375 C-2 3 -2 3 0 0 Z " fill="#5A2D80" transform="translate(103,48)"/>
<path d="M0 0 C2.53125 -0.328125 2.53125 -0.328125 5.5 -0.25 C6.96953125 -0.22679687 6.96953125 -0.22679687 8.46875 -0.203125 C11 0 11 0 13 1 C13 1.66 13 2.32 13 3 C8.05 3 3.1 3 -2 3 C-1.34 2.01 -0.68 1.02 0 0 Z " fill="#060B14" transform="translate(168,4)"/>
<path d="M0 0 C1.09911549 3.29734646 1.1139456 5.72958745 1.09765625 9.19921875 C1.09443359 10.40771484 1.09121094 11.61621094 1.08789062 12.86132812 C1.07951172 14.12396484 1.07113281 15.38660156 1.0625 16.6875 C1.05798828 17.96173828 1.05347656 19.23597656 1.04882812 20.54882812 C1.03702873 23.69926564 1.02056597 26.84960949 1 30 C0.34 30 -0.32 30 -1 30 C-1 21.75 -1 13.5 -1 5 C-1.66 4.67 -2.32 4.34 -3 4 C-2.01 2.68 -1.02 1.36 0 0 Z " fill="#0C1220" transform="translate(63,181)"/>
<path d="M0 0 C1.32 0.33 2.64 0.66 4 1 C3.01 1 2.02 1 1 1 C1.061875 2.093125 1.12375 3.18625 1.1875 4.3125 C1 8 1 8 -0.375 9.9375 C-2 11 -2 11 -4 11 C-5.62514468 12.45833358 -5.62514468 12.45833358 -7 14 C-7.99 13.67 -8.98 13.34 -10 13 C-6.82679218 9.46413986 -4.83256305 7.41421969 0 7 C0 4.69 0 2.38 0 0 Z " fill="#BB6A3E" transform="translate(130,121)"/>
<path d="M0 0 C2 2 2 2 2.1953125 5.6953125 C2.182009 7.17200108 2.15814835 8.64862358 2.125 10.125 C2.11597656 10.87910156 2.10695312 11.63320312 2.09765625 12.41015625 C2.0740687 14.27357254 2.03819719 16.13682593 2 18 C0.68 17.67 -0.64 17.34 -2 17 C-1.67 16.67 -1.34 16.34 -1 16 C-0.76321284 13.30764224 -0.57801975 10.63501844 -0.4375 7.9375 C-0.39431641 7.17888672 -0.35113281 6.42027344 -0.30664062 5.63867188 C-0.20026367 3.75934562 -0.09960066 1.87969756 0 0 Z " fill="#1D1F2D" transform="translate(189,187)"/>
<path d="M0 0 C0 0.99 0 1.98 0 3 C1.32 2.34 2.64 1.68 4 1 C3.4409112 4.24271506 2.5867822 5.93057424 0 8 C-0.66 8 -1.32 8 -2 8 C-2.99 8.66 -3.98 9.32 -5 10 C-4.49701212 5.59885603 -2.91227269 3.28804981 0 0 Z " fill="#311B3F" transform="translate(66,121)"/>
<path d="M0 0 C3.76384777 -0.55350702 4.93717714 -0.043976 8.125 2.1875 C10.68033842 4.5183384 12.57285001 6.80990002 14 10 C13.67 10.99 13.34 11.98 13 13 C12.5978125 12.0409375 12.5978125 12.0409375 12.1875 11.0625 C11.11332248 8.66868314 11.11332248 8.66868314 8 8 C7.731875 7.38125 7.46375 6.7625 7.1875 6.125 C5.48423076 3.07704451 3.1262325 2.35923152 0 1 C0 0.67 0 0.34 0 0 Z " fill="#201C2F" transform="translate(92,4)"/>
<path d="M0 0 C-0.33 0.99 -0.66 1.98 -1 3 C-4.63 3 -8.26 3 -12 3 C-12 2.34 -12 1.68 -12 1 C-3.96428571 -1.27678571 -3.96428571 -1.27678571 0 0 Z " fill="#030611" transform="translate(171,107)"/>
<path d="M0 0 C-1.0625 2 -1.0625 2 -3 4 C-6.6875 4.25 -6.6875 4.25 -10 4 C-10.33 2.68 -10.66 1.36 -11 0 C-3.57142857 -1.28571429 -3.57142857 -1.28571429 0 0 Z " fill="#200F14" transform="translate(123,102)"/>
<path d="M0 0 C4.85963179 0.60745397 8.7405518 2.72758967 13 5 C12.625 6.9375 12.625 6.9375 12 9 C11.01 9.495 11.01 9.495 10 10 C9.7525 9.21625 9.505 8.4325 9.25 7.625 C7.79322578 4.56577414 7.03726494 4.25063851 4 3 C2.64886795 2.02418241 1.31053056 1.02970259 0 0 Z " fill="#1E220C" transform="translate(91,8)"/>
<path d="M0 0 C2.64 0 5.28 0 8 0 C7.60140439 1.92050612 7.18034074 3.83635712 6.75 5.75 C6.51796875 6.81734375 6.2859375 7.8846875 6.046875 8.984375 C4.90691372 12.26814405 3.61882772 13.77074995 1 16 C1.71730736 12.76834156 2.81315074 9.81292078 4.0625 6.75 C4.42472656 5.85796875 4.78695312 4.9659375 5.16015625 4.046875 C5.43730469 3.37140625 5.71445313 2.6959375 6 2 C4.35 2 2.7 2 1 2 C0.67 1.34 0.34 0.68 0 0 Z " fill="#65328D" transform="translate(90,111)"/>
<path d="M0 0 C3.39853912 -0.39190361 4.76416967 -0.15423648 7.67578125 1.75 C8.54589844 2.4925 9.41601562 3.235 10.3125 4 C11.19550781 4.7425 12.07851562 5.485 12.98828125 6.25 C13.98408203 7.11625 13.98408203 7.11625 15 8 C14.67 8.66 14.34 9.32 14 10 C9.39878288 7.96690406 6.44844901 5.63485166 3 2 C2.01 1.34 1.02 0.68 0 0 Z " fill="#232430" transform="translate(181,5)"/>
<path d="M0 0 C0.8181814 3.18554234 1.46044188 5.70016654 1 9 C-0.48152074 11.48646838 -2.18388464 13.74931418 -4 16 C-5 14 -5 14 -4.00390625 10.7421875 C-3.53110016 9.4502948 -3.05028031 8.16131362 -2.5625 6.875 C-2.31951172 6.21628906 -2.07652344 5.55757812 -1.82617188 4.87890625 C-1.22421679 3.25008662 -0.61297588 1.62470425 0 0 Z " fill="#712177" transform="translate(80,47)"/>
<path d="M0 0 C0.66 0.33 1.32 0.66 2 1 C0.54540569 2.64913882 -0.91379257 4.29421782 -2.375 5.9375 C-3.18710938 6.85402344 -3.99921875 7.77054687 -4.8359375 8.71484375 C-7 11 -7 11 -9 12 C-8.45015228 8.12488273 -6.72444669 6.40423494 -3.9375 3.75 C-3.20402344 3.04359375 -2.47054687 2.3371875 -1.71484375 1.609375 C-1.14894531 1.07828125 -0.58304688 0.5471875 0 0 Z " fill="#2E163B" transform="translate(78,109)"/>
<path d="M0 0 C1.98 0.66 3.96 1.32 6 2 C6 4.64 6 7.28 6 10 C5.67 10 5.34 10 5 10 C5 8.35 5 6.7 5 5 C4.01 5 3.02 5 2 5 C1.67 6.32 1.34 7.64 1 9 C0.67 6.03 0.34 3.06 0 0 Z " fill="#25280C" transform="translate(161,80)"/>
<path d="M0 0 C2.75 -0.25 2.75 -0.25 6 0 C8.375 2 8.375 2 10 4 C9.67 4.66 9.34 5.32 9 6 C6.525 5.01 6.525 5.01 4 4 C4 3.34 4 2.68 4 2 C2.68 2 1.36 2 0 2 C0 1.34 0 0.68 0 0 Z " fill="#0F0B13" transform="translate(156,23)"/>
<path d="M0 0 C2 1 2 1 3.1875 2.5 C5.8792664 4.72766874 8.59829452 4.67908439 12 5 C12 5.33 12 5.66 12 6 C8.37 6.66 4.74 7.32 1 8 C1.33 6.68 1.66 5.36 2 4 C1.01 3.67 0.02 3.34 -1 3 C-0.67 2.01 -0.34 1.02 0 0 Z " fill="#D77412" transform="translate(74,10)"/>
<path d="M0 0 C0.33 0 0.66 0 1 0 C0.88534579 2.22972273 0.75785234 4.45878753 0.625 6.6875 C0.55539063 7.92886719 0.48578125 9.17023438 0.4140625 10.44921875 C0.03577906 13.69317772 -0.61979976 16.06567185 -2 19 C-2.33 19 -2.66 19 -3 19 C-3.38614349 12.1781317 -2.00865708 6.50422293 0 0 Z " fill="#F896D7" transform="translate(210,108)"/>
<path d="M0 0 C0.66 0.33 1.32 0.66 2 1 C0.92492371 2.29854721 -0.16043736 3.58858361 -1.25 4.875 C-1.85328125 5.59429688 -2.4565625 6.31359375 -3.078125 7.0546875 C-4.97087634 8.97052118 -6.53657727 9.96449045 -9 11 C-7.59155282 7.78475695 -5.89655214 5.67816132 -3.375 3.25 C-2.74335937 2.63640625 -2.11171875 2.0228125 -1.4609375 1.390625 C-0.73777344 0.70226562 -0.73777344 0.70226562 0 0 Z " fill="#2F1E0A" transform="translate(90,26)"/>
<path d="M0 0 C1.32 1.32 2.64 2.64 4 4 C3.566875 4.37125 3.13375 4.7425 2.6875 5.125 C0.79847568 7.05678692 0.79847568 7.05678692 -0.5625 10.125 C-2 13 -2 13 -4 14 C-3.52188823 12.22888156 -3.0424722 10.45811517 -2.5625 8.6875 C-2.29566406 7.70136719 -2.02882812 6.71523438 -1.75390625 5.69921875 C-1.21920575 3.78482474 -0.62855462 1.88566385 0 0 Z " fill="#F6CE06" transform="translate(165,32)"/>
<path d="M0 0 C1.9375 0.375 1.9375 0.375 4 1 C4.33 1.66 4.66 2.32 5 3 C4.34 3 3.68 3 3 3 C3.33 4.65 3.66 6.3 4 8 C1.36 6.02 -1.28 4.04 -4 2 C-3.34 1.67 -2.68 1.34 -2 1 C-1.34 1.33 -0.68 1.66 0 2 C0 1.34 0 0.68 0 0 Z " fill="#22200C" transform="translate(165,27)"/>
<path d="M0 0 C0.66 0.33 1.32 0.66 2 1 C-0.97 4.3 -3.94 7.6 -7 11 C-7.99 10.67 -8.98 10.34 -10 10 C-6.7 6.7 -3.4 3.4 0 0 Z " fill="#6C2074" transform="translate(80,114)"/>
<path d="M0 0 C0.66 0.33 1.32 0.66 2 1 C-0.86698342 4.49413605 -2.84150148 6.28836874 -7.3125 6.8125 C-9.1378125 6.9053125 -9.1378125 6.9053125 -11 7 C-8.84658594 4.65082102 -6.78332063 3.17556996 -3.9375 1.75 C-3.24527344 1.39421875 -2.55304688 1.0384375 -1.83984375 0.671875 C-1.23269531 0.45015625 -0.62554687 0.2284375 0 0 Z " fill="#01091B" transform="translate(140,113)"/>
<path d="M0 0 C0 0.66 0 1.32 0 2 C-4.455 3.485 -4.455 3.485 -9 5 C-8.67 5.66 -8.34 6.32 -8 7 C-9.9375 6.1875 -9.9375 6.1875 -12 5 C-12.33 4.01 -12.66 3.02 -13 2 C-12.06027344 1.90912109 -12.06027344 1.90912109 -11.1015625 1.81640625 C-9.87566406 1.69072266 -9.87566406 1.69072266 -8.625 1.5625 C-7.81289062 1.48128906 -7.00078125 1.40007812 -6.1640625 1.31640625 C-3.85304959 0.97851447 -2.33455672 0 0 0 Z " fill="#1C2266" transform="translate(124,105)"/>
<path d="M0 0 C2.97 0.495 2.97 0.495 6 1 C5 4 5 4 3 5 C2.34786708 7.02463255 2.34786708 7.02463255 2 9 C2 8.01 2 7.02 2 6 C0.68 5.67 -0.64 5.34 -2 5 C-1.34 4.67 -0.68 4.34 0 4 C0 2.68 0 1.36 0 0 Z " fill="#291910" transform="translate(74,38)"/>
<path d="M0 0 C0.33 0 0.66 0 1 0 C1.33 4.95 1.66 9.9 2 15 C0 14 0 14 -1 11 C-1.09203743 9.48138245 -1.13001284 7.95889574 -1.125 6.4375 C-1.12757812 5.65246094 -1.13015625 4.86742187 -1.1328125 4.05859375 C-1 2 -1 2 0 0 Z " fill="#B84816" transform="translate(61,26)"/>
<path d="M0 0 C0.99 0.33 1.98 0.66 3 1 C2.34 1 1.68 1 1 1 C3.1385485 3.1385485 4.13275314 3.42655063 7 4 C7 4.66 7 5.32 7 6 C4.69 6 2.38 6 0 6 C-0.38218767 4.34385343 -0.71395102 2.67542976 -1 1 C-0.67 0.67 -0.34 0.34 0 0 Z " fill="#131422" transform="translate(92,205)"/>
<path d="M0 0 C4.75 0.875 4.75 0.875 7 2 C9.37123246 2.23029956 11.74741943 2.41119942 14.125 2.5625 C15.40632812 2.64628906 16.68765625 2.73007812 18.0078125 2.81640625 C19.48894531 2.90728516 19.48894531 2.90728516 21 3 C21 3.33 21 3.66 21 4 C18.62429457 4.0816082 16.25144159 4.14077222 13.875 4.1875 C13.20984375 4.21263672 12.5446875 4.23777344 11.859375 4.26367188 C7.13097708 4.33320714 4.04878521 3.40278375 0 1 C0 0.67 0 0.34 0 0 Z " fill="#FCCB07" transform="translate(126,41)"/>
<path d="M0 0 C0.33 0.66 0.66 1.32 1 2 C0.67 2.99 0.34 3.98 0 5 C0.66 5.33 1.32 5.66 2 6 C1.67 6.33 1.34 6.66 1 7 C0.63239269 9.32817964 0.29758419 11.6618385 0 14 C-0.33 14 -0.66 14 -1 14 C-1.144375 12.9275 -1.28875 11.855 -1.4375 10.75 C-1.85878325 7.20864897 -1.85878325 7.20864897 -2.75 4.75 C-2.8325 4.1725 -2.915 3.595 -3 3 C-1.5625 1.25 -1.5625 1.25 0 0 Z " fill="#BC5A33" transform="translate(119,135)"/>
<path d="M0 0 C0.66 0 1.32 0 2 0 C1.6121322 2.48660455 1.29037521 3.72345219 -0.55859375 5.484375 C-1.17863281 5.90203125 -1.79867187 6.3196875 -2.4375 6.75 C-3.05496094 7.17796875 -3.67242187 7.6059375 -4.30859375 8.046875 C-6 9 -6 9 -8 9 C-8 8.34 -8 7.68 -8 7 C-6.00669158 5.65668346 -4.00615134 4.32405988 -2 3 C-1.34 2.01 -0.68 1.02 0 0 Z " fill="#030409" transform="translate(112,157)"/>
<path d="M0 0 C2.64 0 5.28 0 8 0 C8.33 0.66 8.66 1.32 9 2 C5.78548731 3.60725635 2.56387464 3.05748185 -1 3 C-0.67 2.01 -0.34 1.02 0 0 Z " fill="#010513" transform="translate(160,129)"/>
<path d="M0 0 C3.63 0.33 7.26 0.66 11 1 C10.34 2.98 9.68 4.96 9 7 C7.68 6.67 6.36 6.34 5 6 C5.66 5.67 6.32 5.34 7 5 C7.33 4.01 7.66 3.02 8 2 C7.05125 2.04125 6.1025 2.0825 5.125 2.125 C2 2 2 2 0 0 Z " fill="#161D5B" transform="translate(135,106)"/>
<path d="M0 0 C0.99 0 1.98 0 3 0 C3.125 3.375 3.125 3.375 3 7 C2.34 7.66 1.68 8.32 1 9 C0.34 8.34 -0.32 7.68 -1 7 C-0.625 3.375 -0.625 3.375 0 0 Z " fill="#060B0F" transform="translate(163,85)"/>
<path d="M0 0 C0 0.66 0 1.32 0 2 C-3.67410785 3.17571451 -7.16929183 3.07366746 -11 3 C-11 2.34 -11 1.68 -11 1 C-7.32589215 -0.17571451 -3.83070817 -0.07366746 0 0 Z " fill="#020715" transform="translate(88,4)"/>
<path d="M0 0 C2.8125 -0.1875 2.8125 -0.1875 6 0 C6.99 0.99 7.98 1.98 9 3 C5.7 3.33 2.4 3.66 -1 4 C-0.67 2.68 -0.34 1.36 0 0 Z " fill="#0F0B11" transform="translate(154,130)"/>
<path d="M0 0 C0.66 0.33 1.32 0.66 2 1 C2 3.31 2 5.62 2 8 C1.01 8.33 0.02 8.66 -1 9 C-1.09765625 2.84765625 -1.09765625 2.84765625 -1 1 C-0.67 0.67 -0.34 0.34 0 0 Z " fill="#070814" transform="translate(70,25)"/>
<path d="M0 0 C-0.99 0 -1.98 0 -3 0 C-2.67 1.98 -2.34 3.96 -2 6 C-6.875 4.25 -6.875 4.25 -8 2 C-6.14210462 -1.71579076 -3.44525918 -1.06921837 0 0 Z " fill="#E1C70B" transform="translate(83,9)"/>
<path d="M0 0 C1.32 1.32 2.64 2.64 4 4 C2.68 3.67 1.36 3.34 0 3 C0.66 4.65 1.32 6.3 2 8 C-0.62187494 6.95125002 -1.79371361 6.35068687 -3.25 3.875 C-3.4975 3.25625 -3.745 2.6375 -4 2 C-3.01 2 -2.02 2 -1 2 C-0.67 1.34 -0.34 0.68 0 0 Z " fill="#0C1441" transform="translate(97,92)"/>
<path d="M0 0 C0.66 0 1.32 0 2 0 C2 0.66 2 1.32 2 2 C6.29 2 10.58 2 15 2 C15 2.33 15 2.66 15 3 C14.25234375 3.06058594 13.5046875 3.12117187 12.734375 3.18359375 C11.74953125 3.26738281 10.7646875 3.35117188 9.75 3.4375 C8.77546875 3.51871094 7.8009375 3.59992187 6.796875 3.68359375 C4.43538247 3.95074584 2.28098935 4.35371968 0 5 C0 3.35 0 1.7 0 0 Z " fill="#32300B" transform="translate(75,5)"/>
<path d="M0 0 C0.33 0.99 0.66 1.98 1 3 C2.98 2.34 4.96 1.68 7 1 C6.34 2.32 5.68 3.64 5 5 C2.36 5 -0.28 5 -3 5 C-3 4.34 -3 3.68 -3 3 C-2.01 3 -1.02 3 0 3 C0 2.01 0 1.02 0 0 Z " fill="#1F1F0A" transform="translate(182,48)"/>
<path d="M0 0 C1.5625 1.25 1.5625 1.25 3 3 C2.6875 5.1875 2.6875 5.1875 2 7 C0.68 6.34 -0.64 5.68 -2 5 C-1.125 1.125 -1.125 1.125 0 0 Z " fill="#130F12" transform="translate(72,35)"/>
<path d="M0 0 C-1.75 2 -1.75 2 -4 4 C-5.32 4 -6.64 4 -8 4 C-7.625 2.0625 -7.625 2.0625 -7 0 C-4.3333581 -1.33332095 -2.83319697 -0.67102033 0 0 Z " fill="#0C0D12" transform="translate(80,21)"/>
<path d="M0 0 C0.33 0.66 0.66 1.32 1 2 C0.67 2.66 0.34 3.32 0 4 C-4.62 4 -9.24 4 -14 4 C-14 3.67 -14 3.34 -14 3 C-10.37 3 -6.74 3 -3 3 C-3 2.34 -3 1.68 -3 1 C-2.01 0.67 -1.02 0.34 0 0 Z " fill="#E27AC1" transform="translate(151,14)"/>
<path d="M0 0 C0.33 0 0.66 0 1 0 C1.33 4.62 1.66 9.24 2 14 C1.01 14.33 0.02 14.66 -1 15 C-0.67 10.05 -0.34 5.1 0 0 Z " fill="#373804" transform="translate(184,72)"/>
<path d="M0 0 C3.39914975 1.13304992 4.05254451 2.12518475 6 5 C5.67 5.66 5.34 6.32 5 7 C4.01 6.34 3.02 5.68 2 5 C1.67 5.66 1.34 6.32 1 7 C0.67 4.69 0.34 2.38 0 0 Z " fill="#377C91" transform="translate(111,26)"/>
<path d="M0 0 C-1.49097658 3.7952131 -3.75700849 5.61042731 -7 8 C-7 5 -7 5 -4.625 2.3125 C-2 0 -2 0 0 0 Z " fill="#D1CD0B" transform="translate(165,9)"/>
<path d="M0 0 C0.95465783 2.16967689 1.14401212 3.56328793 0.3984375 5.82421875 C-0.35870385 7.5684743 -1.17609198 9.28627131 -2 11 C-2.99 11 -3.98 11 -5 11 C-3.55049545 7.2089881 -1.84827434 3.6125362 0 0 Z " fill="#484505" transform="translate(182,88)"/>
<path d="M0 0 C2.97 0.495 2.97 0.495 6 1 C4.60804085 3.7839183 2.84424221 3.97898997 0 5 C0 3.35 0 1.7 0 0 Z " fill="#DA5622" transform="translate(110,78)"/>
<path d="M0 0 C1.0326802 2.78823655 1.04509293 3.8677274 0.0625 6.75 C-0.288125 7.4925 -0.63875 8.235 -1 9 C-1.99 9 -2.98 9 -4 9 C-2.80100302 5.9168649 -1.52299523 2.93720508 0 0 Z " fill="#494707" transform="translate(196,37)"/>
<path d="M0 0 C0.8971875 0.309375 0.8971875 0.309375 1.8125 0.625 C0.8225 0.955 -0.1675 1.285 -1.1875 1.625 C-1.1875 2.285 -1.1875 2.945 -1.1875 3.625 C-3.4975 3.955 -5.8075 4.285 -8.1875 4.625 C-3.2421875 -0.55580357 -3.2421875 -0.55580357 0 0 Z " fill="#3E3106" transform="translate(100.1875,21.375)"/>
<path d="M0 0 C0.99 0.33 1.98 0.66 3 1 C2.67 1.99 2.34 2.98 2 4 C2.99 4 3.98 4 5 4 C5 4.66 5 5.32 5 6 C3.35 6 1.7 6 0 6 C0 4.02 0 2.04 0 0 Z " fill="#171826" transform="translate(207,205)"/>
<path d="M0 0 C2.475 0.99 2.475 0.99 5 2 C4.67 3.32 4.34 4.64 4 6 C3.01 5.67 2.02 5.34 1 5 C0.67 3.35 0.34 1.7 0 0 Z " fill="#090A18" transform="translate(185,114)"/>
<path d="M0 0 C0.33 0.99 0.66 1.98 1 3 C3.10584438 3.80563638 3.10584438 3.80563638 5.5625 4.1875 C6.38878906 4.34605469 7.21507813 4.50460938 8.06640625 4.66796875 C9.02353516 4.83232422 9.02353516 4.83232422 10 5 C8.234375 6.0859375 8.234375 6.0859375 6 7 C2.25 5.625 2.25 5.625 -1 4 C-0.67 2.68 -0.34 1.36 0 0 Z " fill="#EBC207" transform="translate(87,17)"/>
<path d="M0 0 C0.66 0.33 1.32 0.66 2 1 C1.0479279 2.00596297 0.08812654 3.00461563 -0.875 4 C-1.40867188 4.556875 -1.94234375 5.11375 -2.4921875 5.6875 C-4 7 -4 7 -6 7 C-4.60667426 3.63279613 -3.0210714 2.0140476 0 0 Z " fill="#030208" transform="translate(195,152)"/>
</svg>
