<?xml version="1.0" standalone="no"?>
<!DOCTYPE svg PUBLIC "-//W3C//DTD SVG 20010904//EN"
 "http://www.w3.org/TR/2001/REC-SVG-20010904/DTD/svg10.dtd">
<svg version="1.0" xmlns="http://www.w3.org/2000/svg"
 width="512.000000pt" height="512.000000pt" viewBox="0 0 512.000000 512.000000"
 preserveAspectRatio="xMidYMid meet">

<g transform="translate(0.000000,512.000000) scale(0.100000,-0.100000)"
fill="#000000" stroke="none">
<path d="M2213 4765 c-66 -18 -118 -51 -166 -104 -61 -67 -81 -122 -82 -221 0
-73 4 -94 28 -145 36 -77 110 -147 185 -175 47 -18 72 -21 142 -18 54 3 97 11
118 21 l32 18 0 -156 0 -155 -46 0 c-67 0 -235 -28 -334 -55 -543 -151 -974
-560 -1148 -1089 -22 -66 -48 -161 -57 -211 -33 -187 -15 -160 -138 -209 -298
-122 -581 -334 -670 -503 -42 -80 -77 -203 -77 -269 0 -145 87 -322 221 -449
117 -111 97 -105 338 -105 161 0 212 -3 215 -12 2 -7 9 -38 16 -68 18 -82 82
-207 142 -278 89 -105 189 -170 328 -213 111 -35 283 -33 395 4 86 28 168 73
240 132 97 80 193 241 219 366 l13 64 431 3 432 2 6 -27 c41 -188 127 -331
257 -429 77 -58 132 -86 227 -116 110 -34 282 -32 395 5 84 28 173 76 234 128
100 86 194 238 221 359 7 30 14 61 16 67 3 10 55 13 218 13 l215 0 62 50 c162
130 279 337 279 496 0 111 -54 259 -133 363 -104 135 -395 329 -642 426 -78
31 -80 32 -87 71 -4 21 -14 80 -23 129 -9 50 -35 145 -57 211 -174 529 -605
938 -1148 1089 -99 27 -267 55 -334 55 l-46 0 0 154 0 154 53 -20 c72 -28 192
-22 262 12 66 32 131 99 163 168 37 81 38 193 0 273 -36 78 -89 133 -165 171
-116 57 -263 39 -357 -44 l-46 -40 -41 37 c-80 72 -201 100 -306 70z m184
-188 c72 -48 96 -159 50 -228 -36 -53 -82 -79 -141 -79 -82 0 -145 48 -165
125 -38 149 128 267 256 182z m509 2 c81 -49 104 -174 45 -246 -101 -122 -301
-56 -301 100 0 137 139 216 256 146z m-180 -920 c361 -36 661 -177 919 -434
255 -253 395 -539 440 -898 7 -59 20 -118 28 -131 10 -14 44 -33 94 -51 147
-54 423 -193 423 -213 0 -4 -31 -21 -68 -39 -88 -41 -145 -92 -176 -156 -48
-99 -44 -171 15 -260 71 -107 267 -197 431 -197 36 0 38 -1 27 -21 -6 -12 -40
-50 -75 -85 l-64 -64 -186 2 -186 3 -18 70 c-37 142 -98 244 -205 342 -209
193 -520 230 -780 95 -106 -55 -229 -182 -282 -292 -23 -47 -47 -110 -53 -140
-7 -30 -14 -61 -16 -68 -5 -18 -863 -18 -868 0 -2 7 -9 38 -16 68 -6 30 -30
93 -53 140 -58 120 -177 239 -297 298 -114 56 -185 73 -305 74 -237 1 -447
-112 -577 -311 -47 -71 -98 -206 -98 -257 l0 -24 -186 0 -185 0 -41 33 c-38
30 -118 122 -118 136 0 3 29 14 65 23 161 43 276 169 278 307 2 91 -26 157
-98 227 l-62 60 76 50 c99 65 274 152 389 193 62 23 99 42 109 57 8 13 21 72
28 131 33 258 113 474 258 688 79 117 274 311 391 389 310 207 662 293 1042
255z m2116 -1907 c47 -52 86 -135 99 -210 16 -88 13 -92 -68 -92 -233 1 -406
121 -327 227 36 48 153 99 255 112 4 1 22 -16 41 -37z m-4473 -25 c40 -36 62
-97 51 -138 -18 -64 -105 -122 -204 -135 -44 -6 -46 -6 -46 18 0 83 43 205 94
265 24 29 30 31 54 22 15 -6 38 -20 51 -32z m1232 -217 c79 -24 175 -86 228
-146 246 -279 131 -704 -224 -830 -72 -25 -232 -25 -304 0 -217 75 -360 270
-361 491 0 215 149 416 360 486 78 25 218 25 301 -1z m2209 4 c213 -63 370
-271 370 -489 -1 -221 -144 -416 -361 -491 -72 -25 -232 -25 -304 0 -121 43
-238 141 -294 246 -150 281 -14 623 289 727 81 28 219 31 300 7z"/>
<path d="M2395 3489 c-312 -33 -615 -182 -827 -408 -193 -205 -310 -439 -358
-715 -14 -80 -14 -80 16 -115 l26 -31 1308 0 1308 0 26 31 c30 35 30 35 16
115 -81 465 -377 841 -807 1025 -210 90 -456 124 -708 98z m75 -634 l0 -465
-541 0 -541 0 7 33 c52 249 236 522 458 681 166 118 413 210 580 215 l37 1 0
-465z m317 451 c290 -51 553 -212 729 -445 98 -131 181 -305 209 -438 l7 -33
-541 0 -541 0 0 465 0 465 28 0 c15 0 64 -6 109 -14z"/>
<path d="M1333 1342 c-101 -40 -178 -124 -208 -226 -83 -279 219 -529 479
-395 60 31 132 105 157 163 28 65 36 161 19 223 -29 106 -119 203 -219 238
-59 20 -174 19 -228 -3z m215 -181 c89 -63 95 -195 13 -264 -75 -63 -165 -58
-233 14 -76 80 -56 208 42 261 48 26 134 21 178 -11z"/>
<path d="M3553 1342 c-104 -42 -184 -131 -213 -235 -17 -62 -9 -158 19 -223
25 -58 97 -132 157 -163 194 -100 434 13 484 228 35 149 -45 312 -185 381 -66
33 -198 39 -262 12z m220 -185 c104 -79 79 -239 -45 -291 -138 -57 -278 97
-209 231 19 38 54 71 91 86 8 4 40 5 72 4 43 -2 64 -10 91 -30z"/>
</g>
</svg>
