<?xml version="1.0" standalone="no"?>
<!DOCTYPE svg PUBLIC "-//W3C//DTD SVG 20010904//EN"
 "http://www.w3.org/TR/2001/REC-SVG-20010904/DTD/svg10.dtd">
<svg version="1.0" xmlns="http://www.w3.org/2000/svg"
 width="225.000000pt" height="225.000000pt" viewBox="0 0 225.000000 225.000000"
 preserveAspectRatio="xMidYMid meet">

<g transform="translate(0.000000,225.000000) scale(0.100000,-0.100000)"
fill="#000000" stroke="none">
<path d="M1068 2241 c-48 -16 -88 -45 -116 -85 -23 -34 -27 -51 -31 -128 -4
-103 12 -158 59 -204 45 -44 40 -60 -23 -68 -29 -4 -76 -18 -105 -31 -43 -20
-52 -29 -52 -50 0 -36 22 -41 74 -15 26 12 74 24 116 27 60 5 73 10 81 27 14
31 94 30 108 0 8 -18 20 -22 70 -26 33 -2 63 -7 66 -10 10 -9 -16 -149 -42
-233 -29 -93 -60 -157 -115 -237 l-39 -58 -67 0 -67 0 -20 53 c-15 40 -20 84
-23 194 -4 175 -6 178 -106 133 -80 -37 -81 -41 -25 -162 23 -50 37 -93 33
-98 -5 -4 -18 -11 -30 -14 -19 -6 -27 7 -77 114 -32 66 -57 131 -57 145 0 15
11 31 30 45 35 25 38 45 10 60 -17 9 -28 7 -54 -9 -67 -42 -72 -99 -17 -217
l39 -83 -124 -278 c-137 -309 -144 -337 -98 -392 20 -24 47 -37 124 -61 99
-30 99 -31 119 -75 23 -53 70 -85 124 -85 l37 0 0 -48 c0 -36 -5 -50 -20 -60
-16 -9 -20 -23 -20 -62 l0 -50 -155 0 c-152 0 -156 -1 -180 -25 -36 -35 -36
-115 0 -150 l24 -25 606 0 606 0 24 25 c20 19 25 34 25 75 0 41 -5 56 -25 75
-24 24 -28 25 -180 25 l-155 0 0 50 c0 39 -4 53 -20 62 -15 10 -20 24 -20 60
l0 48 38 0 c53 0 100 32 123 85 20 44 20 45 119 75 165 51 184 99 107 269 -47
104 -67 125 -93 99 -15 -15 -12 -24 31 -122 59 -133 57 -146 -37 -174 -35 -11
-64 -19 -66 -17 -1 1 -24 82 -51 180 -45 164 -61 199 -85 192 -31 -10 -28 -39
21 -216 43 -155 48 -183 36 -193 -8 -6 -24 -30 -35 -52 -25 -49 -33 -56 -76
-56 l-32 0 2 282 c3 274 4 283 23 286 33 6 65 43 94 106 l26 59 43 -92 c37
-80 46 -92 65 -89 36 5 31 38 -22 157 l-50 111 40 84 c65 139 55 170 -78 257
-114 74 -162 96 -230 105 -63 8 -68 24 -23 68 47 46 63 101 59 204 -4 78 -7
94 -32 129 -15 22 -45 49 -67 62 -44 24 -121 35 -162 22z m66 -91 c31 -37 48
-97 44 -153 -3 -41 -4 -42 -42 -45 -23 -2 -63 6 -99 19 l-59 22 6 45 c8 60 33
101 76 123 45 24 44 24 74 -11z m54 -261 c55 17 61 17 53 2 -24 -44 -102 -95
-132 -86 -23 8 -109 82 -109 95 0 4 28 -1 63 -12 62 -18 64 -18 125 1z m-386
-806 c12 -11 32 -23 43 -25 18 -3 20 -13 25 -112 4 -87 8 -111 22 -119 28 -18
47 8 50 68 l3 54 70 -43 70 -43 3 -122 3 -123 -23 5 c-13 4 -47 11 -76 17 -50
11 -52 13 -52 45 0 38 -21 59 -50 50 -19 -6 -20 -14 -20 -126 l0 -119 -32 0
c-43 0 -51 7 -76 56 -11 22 -27 46 -35 52 -12 10 -7 38 36 193 49 177 52 206
21 216 -24 7 -40 -28 -85 -192 -27 -98 -50 -179 -51 -180 -2 -2 -31 6 -66 17
-98 30 -99 36 -14 225 38 88 90 201 113 252 l44 94 26 -59 c15 -32 38 -69 51
-81z m98 107 c20 -37 -8 -78 -44 -64 -7 3 -18 16 -24 29 -10 22 -8 26 16 39
36 20 39 20 52 -4z m500 5 c26 -14 28 -18 18 -40 -6 -13 -17 -26 -24 -29 -36
-14 -64 27 -44 64 13 24 13 24 50 5z m-90 -137 c0 -18 -20 -35 -89 -77 -49
-30 -92 -55 -96 -55 -4 0 -47 25 -96 55 -69 42 -89 59 -89 77 l0 22 185 0 185
0 0 -22z m-112 -430 c-34 -21 -38 -10 -38 111 0 113 1 121 23 136 l22 15 3
-127 c2 -94 -1 -128 -10 -135z m-108 -189 l0 -109 -75 0 -75 0 0 124 0 123 75
-15 75 -15 0 -108z m220 16 l0 -125 -75 0 -75 0 0 109 0 109 73 15 c39 8 73
15 75 16 1 0 2 -55 2 -124z m-220 -220 l0 -35 -100 0 -100 0 0 28 c0 16 3 32
7 35 3 4 48 7 100 7 l93 0 0 -35z m268 -2 l3 -33 -100 0 -101 0 0 35 0 36 98
-3 97 -3 3 -32z m352 -133 l0 -30 -585 0 -585 0 0 30 0 30 585 0 585 0 0 -30z"/>
<path d="M1093 1608 c-17 -4 -41 -20 -52 -34 -44 -57 -14 -179 53 -210 30 -15
36 -15 64 0 67 34 95 158 50 211 -28 31 -73 44 -115 33z m65 -96 c5 -30 -16
-82 -33 -82 -24 0 -47 85 -28 104 4 4 19 6 33 4 18 -2 26 -10 28 -26z"/>
</g>
</svg>
