<?xml version="1.0" standalone="no"?>
<!DOCTYPE svg PUBLIC "-//W3C//DTD SVG 20010904//EN"
 "http://www.w3.org/TR/2001/REC-SVG-20010904/DTD/svg10.dtd">
<svg version="1.0" xmlns="http://www.w3.org/2000/svg"
 width="225.000000pt" height="225.000000pt" viewBox="0 0 225.000000 225.000000"
 preserveAspectRatio="xMidYMid meet">

<g transform="translate(0.000000,225.000000) scale(0.100000,-0.100000)"
fill="#000000" stroke="none">
<path d="M1100 1607 c-152 -601 -142 -569 -177 -585 -47 -22 -68 -86 -43 -133
9 -16 6 -22 -22 -39 l-32 -19 -28 34 c-51 62 -133 52 -159 -19 -11 -31 -17
-34 -62 -40 -30 -4 -54 -3 -62 4 -25 21 -74 29 -106 18 -35 -12 -62 -58 -57
-98 2 -20 -5 -37 -22 -55 -22 -24 -23 -27 -7 -42 15 -16 18 -15 37 2 20 18 22
18 49 2 38 -22 93 -22 122 2 16 13 24 33 28 67 6 46 8 49 38 52 27 3 34 -2 48
-27 31 -61 106 -71 149 -20 14 17 26 39 26 49 0 12 18 27 55 44 45 23 58 25
76 16 39 -21 119 10 119 46 0 32 27 22 82 -32 168 -165 257 -332 258 -481 0
-39 2 -43 24 -43 21 0 25 6 29 43 2 23 27 130 55 237 27 107 58 242 67 300 29
180 7 156 190 208 88 25 161 46 163 48 5 3 -101 653 -109 666 -4 6 -141 35
-306 64 -164 30 -307 56 -318 58 -20 5 -26 -17 -105 -327z m312 234 c57 -11
148 -27 202 -37 153 -25 150 -15 38 -127 l-99 -99 -27 34 c-16 18 -75 81 -134
141 -58 59 -100 107 -94 107 6 0 57 -9 114 -19z m-45 -148 c77 -82 142 -151
144 -154 2 -4 -79 -94 -181 -200 -102 -107 -213 -223 -247 -259 -34 -35 -64
-62 -67 -59 -4 3 37 176 90 385 54 208 99 391 102 407 2 15 8 27 12 27 4 0 70
-66 147 -147z m451 -123 c12 -80 29 -183 36 -230 l14 -85 -133 140 -133 140
47 50 c25 28 66 71 90 98 25 26 47 44 51 40 4 -5 16 -73 28 -153z m-275 -192
c4 -46 7 -129 7 -184 l0 -101 -222 -63 c-123 -34 -225 -64 -228 -66 -3 -1 -12
1 -19 5 -10 6 15 38 91 117 57 60 160 168 228 241 69 72 128 132 131 132 3 1
9 -36 12 -81z m294 -200 c-9 -4 -55 -20 -104 -34 -48 -13 -95 -27 -104 -30
-15 -4 -17 9 -18 103 -1 59 -4 135 -7 168 l-5 60 126 -129 c100 -102 124 -131
112 -138z m-284 -180 c-17 -139 -99 -498 -114 -498 -5 0 -9 6 -9 13 0 22 -60
139 -97 191 -21 28 -73 88 -116 133 l-79 82 38 10 c22 6 107 31 189 55 189 55
193 56 188 14z m-803 -158 c22 -22 27 -79 8 -98 -18 -18 -56 -14 -68 7 -15 29
-12 77 6 95 20 21 30 20 54 -4z m-257 -82 c18 -21 21 -45 11 -72 -10 -26 -60
-20 -83 10 -53 67 16 126 72 62z"/>
<path d="M722 1235 c-86 -27 -151 -90 -180 -174 -19 -53 -16 -71 12 -71 19 0
24 6 29 34 17 105 150 194 257 172 27 -5 30 -3 30 18 0 13 -7 27 -16 30 -25
10 -86 6 -132 -9z"/>
<path d="M735 1131 c-63 -29 -105 -86 -105 -142 0 -33 42 -20 51 15 16 58 90
106 143 92 19 -5 25 -1 28 18 8 40 -50 48 -117 17z"/>
<path d="M1788 960 c-16 -10 -16 -13 2 -53 25 -54 25 -139 1 -192 -10 -23 -39
-59 -64 -81 -36 -32 -43 -43 -36 -57 15 -25 25 -21 78 28 69 65 95 129 89 220
-5 62 -32 146 -47 145 -3 0 -14 -5 -23 -10z"/>
<path d="M1699 907 c-15 -11 -15 -16 -3 -37 29 -53 10 -129 -41 -167 -23 -16
-24 -20 -12 -37 11 -15 17 -17 35 -7 68 36 101 145 67 221 -20 44 -22 45 -46
27z"/>
</g>
</svg>
